<svg xmlns="http://www.w3.org/2000/svg" width="81" height="30" viewBox="0 0 81 30">
  <path fill="#CFD8DC" fill-rule="evenodd" d="M0,29.516129 L0,0.483870968 L80.6451613,0.483870968 L80.6451613,29.516129 L0,29.516129 Z M75.4103226,18.382647 L75.4103226,4.12711469 L75.2929032,4.12711469 L71.1064516,4.12711469 L71.1064516,18.231271 C71.1064516,20.5970801 69.7529032,22.0667687 67.5703226,22.0667687 C65.403871,22.0667687 64.0632258,20.5970801 64.0632258,18.231271 L64.0632258,4.12711469 L59.7264516,4.12711469 L59.7264516,18.382647 C59.7264516,22.827481 63.0270968,26.0536423 67.5703226,26.0536423 C72.1141935,26.0536423 75.4103226,22.827481 75.4103226,18.382647 Z M57.7541935,25.8722466 L57.7541935,21.8860117 L48.2316129,21.8860117 L48.2316129,4.12711469 L48.1135484,4.12711469 L43.8987097,4.12711469 L43.8987097,25.8722466 L57.7541935,25.8722466 Z M29.5154839,20.9911687 C28.7612903,20.13401 28.5122581,19.1478304 28.5122581,14.9987226 C28.5122581,10.8508921 28.7612903,9.86535129 29.5122581,9.01010877 C30.1025806,8.31390686 31.0032258,7.93259261 32.0503226,7.93259261 C34.2941935,7.93259261 35.1483871,9.54088288 35.4709677,10.8904926 L35.4935484,10.9837454 L39.8832258,10.9837454 L39.8593548,10.8419501 C39.1516129,6.52422087 36.2225806,3.94508024 32.02,3.94508024 C29.7574194,3.94508024 27.8258065,4.75050281 26.2767742,6.33707669 C24.1741935,8.49019285 24.176129,11.097437 24.1780645,14.7074675 L24.1780645,15.2931713 C24.176129,18.9019242 24.1741935,21.5091684 26.2767742,23.6622846 C27.8258065,25.2488585 29.7574194,26.0536423 32.02,26.0536423 C36.2225806,26.0536423 39.1516129,23.4751404 39.8593548,19.1567725 L39.8832258,19.0175321 L35.4935484,19.0175321 L35.4709677,19.1082299 C35.1483871,20.4584784 34.2941935,22.0667687 32.0503226,22.0667687 C31.0032258,22.0667687 30.1025806,21.6835383 29.5154839,20.9911687 Z M18.1980645,25.8728853 L22.7270968,25.8728853 L14.9767742,4.12711469 L14.8935484,4.12711469 L11.5987097,4.12711469 L3.87870968,25.8728853 L8.40580645,25.8728853 C8.40580645,25.8728853 9.62064516,22.2226157 9.6716129,22.0667687 L16.9606452,22.0667687 C17.0116129,22.2245319 18.1980645,25.8728853 18.1980645,25.8728853 Z M10.9677419,17.9032258 C11.0753114,17.6199239 13.3785227,11.3860452 13.5916191,10.8064516 C13.8006306,11.3879009 16.0248669,17.621161 16.1290323,17.9032258 L10.9677419,17.9032258 Z"/>
</svg>
