<svg xmlns="http://www.w3.org/2000/svg" width="100" height="78" viewBox="0 0 100 78"><path fill="#CFD8DC" fill-rule="nonzero" d="M8.5802 67.5482c-.953-.826-1.8108-1.7473-2.6368-2.7003-.7942-.953-1.5249-1.9697-2.192-3.018-.6672-1.0484-1.239-2.1285-1.7155-3.2404l-.4766-1.1437C-.2832 52.4898-.4103 47.0574.7651 41.879c1.2072-5.1783 3.6534-10.007 6.735-14.2959.8577-1.1754 1.7473-2.2873 2.6685-3.3674 1.2708-1.4614 2.5733-2.7957 3.9711-4.13.4766-.4765.9849-.9213 1.4932-1.366.8895-.7942 1.7472-1.525 2.6685-2.2556 4.1617-3.3357 8.927-6.2584 14.2324-8.7046 1.5884-.7307 3.1768-1.4296 4.8606-2.065 3.558-1.366 7.2432-2.4462 10.9602-3.2404 3.018-.6671 6.0996-1.1119 9.1811-1.3343C63.127.707 68.8136.993 74.3096 2.232c4.0981.9212 8.1328 2.3826 11.7544 4.4793 1.2707.7307 2.5097 1.5567 3.6851 2.478.5719.4447 1.112.8895 1.652 1.366.4765.4448.9848.8578 1.4614 1.3343a27.4157 27.4157 0 0 1 3.5263 4.5747c.7307 1.239 1.366 2.5415 1.9061 3.8758 1.9061 4.8606 2.1603 10.3566 1.0484 15.503-1.0802 5.1148-3.4946 10.2296-7.0209 15.0267-.7624 1.0166-1.5567 2.0332-2.3826 2.9862-.9849 1.1755-2.0015 2.2556-3.0816 3.3357-1.3025 1.3025-2.6686 2.5098-4.0664 3.6852-1.1437.9848-2.3509 1.8743-3.558 2.7639-3.59 2.5732-7.434 4.797-11.4368 6.6714-1.6837.7942-3.431 1.5249-5.1783 2.192-3.431 1.3025-6.9891 2.3827-10.6107 3.1451-2.7004.5719-5.4007 1.0166-8.1328 1.2708-6.0678.5718-12.2627.3177-18.2352-1.0166-5.5278-1.2708-10.4837-3.3993-14.55-6.322-.8578-.6354-1.7156-1.3025-2.5098-2.0332zm75.6094-41.4899c-.0953-.0635-.2541-.0635-.54-.0317-.5083.0635-3.6534.3812-5.0195.5083-.5718.0635-.826.2859-1.0801.7307-.2542.413-7.1797 12.2309-7.1797 12.2309s5.2736-28.4647 5.4324-29.259c.1906-.9848 0-1.2072-.7624-1.2072-.7943 0-4.3841.413-4.9242.4766-.6989.0953-.953.3177-1.1119 1.2072-.127.6671-7.8469 42.7924-7.974 43.5548-.2223 1.2072-.1905 1.239.8896 1.0484.6354-.0953 3.6852-.6036 4.9877-.7942.3812-.0636.6036-.0636.7307-.6672.127-.6036 2.478-12.9616 2.478-12.9616s3.971 11.3097 4.1616 11.7862c.1588.4447.286.6036.8578.5083 1.4295-.2224 4.7017-.7625 5.0194-.826.5718-.0953.6671-.2542.5083-.7307-.1588-.5083-4.2252-12.1991-4.2252-12.1991s7.4974-12.3263 7.7833-12.8346c.127-.2224.127-.4447-.0318-.54zm-23.9853 3.1134c-.9848-.3812-3.018-.9849-5.4325-.699-3.6216.413-6.163 2.0015-7.4656 4.4794-1.3343 2.5098-1.1119 5.3054-.6671 6.7032.4447 1.3979 1.5884 3.018 3.1768 4.3841 3.4946 3.0816 3.3993 5.4642 2.891 6.4808-.6036 1.239-2.3509 2.2238-4.7335 1.7155-2.3827-.5083-3.1451-2.065-3.1451-2.065s-1.1755 4.0982-1.3979 4.8924c-.3177 1.0802-.1906 1.3979.826 1.8108 1.3343.5401 3.9076 1.1437 8.0693.3177 2.8591-.54 5.4006-2.7956 6.6396-5.1465 1.2708-2.4144 2.065-7.148-1.9379-10.7378-3.2404-2.9227-3.5898-3.431-3.9393-4.0664-.6354-1.1437-.127-2.5097.4765-3.2404.5401-.6671 1.239-.9848 2.3827-.9213 1.1437.0636 3.1769 1.5885 3.1769 1.5885s1.4613-4.0982 1.5566-4.4477c.1906-.4765.0636-.8577-.4765-1.0483zm-21.9522-13.47c-.0953-1.2707-1.1119-1.0165-1.5884-.0952-1.5567 3.1133-22.6828 45.6198-22.937 46.1598-.3812.7625-.0635.8895.6672.7942.54-.0635 5.21-.7942 6.6079-1.0166.4765-.0635.6353-.1588.7942-.5083.0635-.1906 3.3992-7.8468 3.3992-7.8468l9.3082-1.4296s.0953 5.8772.0953 6.8938c0 .4448.0318.7307.826.6036.8896-.127 4.543-.699 5.0512-.7942.9213-.1589 1.0166-.3812.9531-1.2072-.0318-.5719-2.9227-38.5672-3.1769-41.5534zM27.705 47.121l6.7668-15.5667.0635 14.5183-6.8303 1.0484z"/></svg>