<svg xmlns="http://www.w3.org/2000/svg" width="169" height="40"  viewBox="0 0 169 40">
  <path fill="#CFD8DC" fill-rule="evenodd" d="M3.82 29.524c.383 4.229 3.193 7.205 7.422 7.205 4.986 0 6.883-5.039 6.883-9.755V0h3.48v26.46c0 2.872-.165 6.614-2.714 9.703a11.077 11.077 0 0 1-8.815 3.829C3.733 39.992.757 35.223 0 29.55h3.794l.026-.026zm43.107-17.55h3.254v21.074c0 2.114.165 4.281.27 6.09h-3.36l-.164-3.976-.105-.104a9.354 9.354 0 0 1-8.51 4.934c-8.884 0-9.571-7.832-9.571-10.999v-17.02h3.254v17.55c0 4.717 2.715 7.484 7.153 7.484 5.368 0 7.83-4.499 7.83-9.38V11.964l-.051.01zM61.31 4.115h-3.254V.052h3.254v4.064zm0 7.831v27.227h-3.254v-27.2h3.254v-.027zM72.5 39.174h-3.254V.017H72.5v39.157zm11.094 0H80.34V.017h3.254v39.157zM94.75 4.116h-3.254V.052h3.254v4.064zm0 7.831v27.227h-3.254v-27.2h3.254v-.027zm23.677 8.04c-.322-4.446-2.61-5.856-6.448-5.856-3.42 0-6.23 1.027-6.665 4.716h-3.48c.809-5.577 4.985-7.692 10.189-7.692 6.012 0 9.754 2.767 9.65 8.997v12.896c-.053 2.114.165 4.281.27 6.09h-3.36l-.104-3.976h-.104l-.166.383c-1.192 2.28-4.82 4.447-8.51 4.447-5.038 0-9.049-3.09-9.049-8.397a8.388 8.388 0 0 1 5.473-7.832c3.629-1.574 8.345-1.026 12.304-1.244v-2.532zm-8.127 17.02c7.1 0 8.449-5.856 8.127-11.547-4.603.166-14.253-.705-14.253 6.091 0 3.724 2.82 5.456 6.126 5.456zm22.406 2.167h-3.254V18.09c.052-2.114-.166-4.28-.27-6.09h3.359l.165 4.02h.113a6.961 6.961 0 0 1 6.091-4.821 32.422 32.422 0 0 1 3.254.052v3.141c-.652-.052-1.357-.217-2.001-.217-4.82 0-7.37 3.48-7.483 8.701v16.298h.026zm32.5-4.012l-.105-.217a11.051 11.051 0 0 1-9.319 5.038c-8.075 0-11.164-7.692-11.164-14.523 0-7.048 3.09-14.305 11.164-14.305 3.628 0 7.422 1.74 9.32 4.934l.104-.105V.052h3.237v32.996c0 2.114.165 4.281.27 6.09h-3.36l-.147-3.976zM156.32 14.14c-6.178 0-8.179 5.743-8.179 10.946 0 5.038 1.462 11.921 7.692 11.921 7.1 0 9.267-5.908 9.267-12.086 0-5.526-2.445-10.781-8.78-10.781z"/>
</svg>
