<svg xmlns="http://www.w3.org/2000/svg" xmlns:xlink="http://www.w3.org/1999/xlink" width="105" height="18" viewBox="0 0 105 18">
  <defs>
    <polygon id="prada-a" points="52.419 17.433 0 17.433 0 .935 52.419 .935 104.839 .935 104.839 17.433"/>
  </defs>
  <g fill="none" fill-rule="evenodd">
    <path fill="#CFD8DC" d="M92.0860452,6.19998065 L89.3929484,11.4670774 L95.0961742,11.4670774 L92.0860452,6.19998065 Z M96.3651419,17.4328194 L96.3651419,17.1468194 C97.2340452,17.1468194 97.6047548,16.8876581 97.6047548,16.3164968 C97.6047548,16.0573355 97.4982387,15.7210129 97.3137226,15.3838516 L95.7294,12.5808839 L88.8662387,12.5808839 L87.6509484,15.0466903 C87.493271,15.3838516 87.3599161,15.7721742 87.3599161,16.1621742 C87.3599161,16.7584968 87.6249484,17.1468194 88.3646903,17.1468194 L88.3646903,17.4328194 L84.1141097,17.4328194 L84.1141097,17.1468194 C85.1163677,17.1468194 85.751271,16.4724968 86.3576581,15.2538516 L91.4528194,5.05933548 L90.0286903,2.69836774 C89.2889484,1.47972258 88.5223677,1.22056129 87.7574645,1.22056129 L87.7574645,0.9354 L94.4361097,0.9354 L102.674755,15.3838516 C103.174626,16.2653355 103.729852,17.1468194 104.838626,17.1468194 L104.838626,17.4328194 L96.3651419,17.4328194 Z M78.173529,6.14881935 C78.173529,3.16636774 76.2713355,2.05088387 74.1603032,2.05088387 L71.8899161,2.05088387 L71.8899161,16.3164968 L74.1603032,16.3164968 C76.2713355,16.3164968 78.173529,15.2010129 78.173529,12.2185613 L78.173529,6.14881935 Z M74.8740452,17.4328194 L65.1575935,17.4328194 L65.1575935,17.1468194 C65.3689484,17.1468194 67.2443032,17.0436581 67.2443032,15.1490129 L67.2443032,3.21836774 C67.2443032,1.32372258 65.3689484,1.22056129 65.1575935,1.22056129 L65.1575935,0.9354 L74.8740452,0.9354 C79.2303032,0.9354 83.7702387,3.73585161 83.7702387,9.18410968 C83.7702387,14.6583677 79.2303032,17.4328194 74.8740452,17.4328194 Z M50.6370129,6.19998065 L47.9439161,11.4670774 L53.6471419,11.4670774 L50.6370129,6.19998065 Z M54.915271,17.4328194 L54.915271,17.1468194 C55.7866903,17.1468194 56.1548839,16.8876581 56.1548839,16.3164968 C56.1548839,16.0573355 56.0492065,15.7210129 55.8646903,15.3838516 L54.2803677,12.5808839 L47.4172065,12.5808839 L46.2019161,15.0466903 C46.0442387,15.3838516 45.9108839,15.7721742 45.9108839,16.1621742 C45.9108839,16.7584968 46.1750774,17.1468194 46.9148194,17.1468194 L46.9148194,17.4328194 L42.6642387,17.4328194 L42.6642387,17.1468194 C43.6664968,17.1468194 44.3005613,16.4724968 44.9086258,15.2538516 L50.0029484,5.05933548 L48.5771419,2.69836774 C47.8390774,1.47972258 47.0724968,1.22056129 46.3067548,1.22056129 L46.3067548,0.9354 L52.9870774,0.9354 L61.2232065,15.3838516 C61.7255935,16.2653355 62.2808194,17.1468194 63.3895935,17.1468194 L63.3895935,17.4328194 L54.915271,17.4328194 Z M30.4140452,2.05088387 L26.9552065,2.05088387 L26.9552065,10.0655935 L30.4140452,10.0655935 C32.9226258,10.0655935 34.1370774,8.19946452 34.1370774,6.07081935 C34.1370774,3.94385161 32.9226258,2.05088387 30.4140452,2.05088387 Z M34.6377871,17.4328194 L26.9552065,11.1810774 L26.9552065,15.1490129 C26.9552065,17.0436581 28.8297226,17.1468194 29.0410774,17.1468194 L29.0410774,17.4328194 L20.2497226,17.4328194 L20.2497226,17.1468194 C20.4602387,17.1468194 22.3355935,17.0436581 22.3355935,15.1490129 L22.3355935,3.21836774 C22.3355935,1.32372258 20.4602387,1.22056129 20.2497226,1.22056129 L20.2497226,0.9354 L32.6064323,0.9354 C36.5391419,0.9354 38.3876581,3.50352903 38.3876581,6.07081935 C38.3876581,8.61462581 36.5391419,11.1810774 32.6064323,11.1810774 L28.7517226,11.1810774 C29.5963032,12.0625613 31.3651419,12.4265613 32.9754645,12.4265613 C33.6866903,12.4265613 34.3995935,12.3217226 35.0084968,12.1674 L41.265271,17.1979806 L41.265271,17.4328194 L34.6377871,17.4328194 Z M10.1642387,2.05088387 L6.73223871,2.05088387 L6.73223871,10.0655935 L10.1642387,10.0655935 C12.6996581,10.0655935 13.8864323,8.19946452 13.8864323,6.07081935 C13.8864323,3.94385161 12.6996581,2.05088387 10.1642387,2.05088387 Z M12.3557871,11.1810774 L6.73223871,11.1810774 L6.73223871,15.1490129 C6.73223871,17.0436581 8.60675484,17.1468194 8.81810968,17.1468194 L8.81810968,17.4328194 L-8.38709677e-05,17.4328194 L-8.38709677e-05,17.1468194 C0.211270968,17.1468194 2.0857871,17.0436581 2.0857871,15.1490129 L2.0857871,3.21836774 C2.0857871,1.32372258 0.211270968,1.22056129 -8.38709677e-05,1.22056129 L-8.38709677e-05,0.9354 L12.3557871,0.9354 C16.2901742,0.9354 18.1630129,3.50352903 18.1630129,6.07081935 C18.1630129,8.61462581 16.2901742,11.1810774 12.3557871,11.1810774 Z"/>
  </g>
</svg>
