<svg xmlns="http://www.w3.org/2000/svg" xmlns:xlink="http://www.w3.org/1999/xlink" width="82" height="37" viewBox="0 0 82 37">
  <defs>
    <polygon id="att-a" points="81.323 10 81.323 25.723 73.391 25.723 73.391 10 81.323 10"/>
  </defs>
  <g fill="none" fill-rule="evenodd">
    <path fill="#CFD8DC" d="M69.0245161 22.6754839L69.0180645 22.6858065C68.4264516 23.3890323 67.776129 23.86 66.8296774 23.86 65.7070968 23.86 64.8290323 23.0522581 64.8290323 22.0245161 64.8290323 21.1122581 65.2180645 20.5683871 66.3722581 19.8735484 66.4529032 19.8270968 66.5432258 19.8367742 66.5993548 19.8935484L69.0070968 22.4135484C69.0509677 22.4548387 69.0690323 22.4980645 69.0716129 22.5445161 69.0722581 22.5464516 69.0722581 22.5483871 69.0722581 22.5490323 69.0722581 22.5929032 69.0587097 22.6329032 69.0245161 22.6754839M67.38 14.5851613C68.1496774 14.5851613 68.563871 15.1167742 68.563871 15.763871 68.563871 16.5225806 67.8877419 16.9619355 67.0729032 17.416129L67.0322581 17.4354839C66.9664516 17.4716129 66.8832258 17.4574194 66.8316129 17.4019355 66.8296774 17.3993548 66.8135484 17.3845161 66.8135484 17.3845161 66.4593548 16.9948387 66.0412903 16.38 66.0412903 15.9335484 66.0412903 15.1754839 66.5832258 14.5851613 67.38 14.5851613M73.8748387 24.7754839L71.5812903 22.4064516C71.5122581 22.3516129 71.4851613 22.2380645 71.5496774 22.1496774 71.5529032 22.1445161 73.2987097 19.2012903 73.2987097 19.2012903 73.3374194 19.1225806 73.3406452 19.0625806 73.3406452 19.036129 73.3406452 18.8503226 73.1903226 18.6974194 73.0032258 18.6974194L71.7219355 18.6980645C71.5916129 18.6980645 71.4793548 18.7651613 71.4167742 18.8729032L70.3070968 20.7883871C70.256129 20.8619355 70.1464516 20.8812903 70.0664516 20.8264516 70.0651613 20.8245161 68.2741935 18.983871 68.2741935 18.983871 68.2464516 18.9522581 68.2329032 18.9129032 68.2329032 18.8729032 68.2329032 18.8270968 68.2529032 18.7793548 68.2890323 18.7458065L68.3122581 18.7264516C69.3245161 18.1374194 70.4787097 17.2722581 70.4787097 15.7458065 70.4787097 13.9929032 69.2206452 12.8167742 67.3496774 12.8167742 65.5154839 12.8167742 64.1245161 14.0451613 64.1245161 15.876129 64.1245161 16.6825806 64.4606452 17.4858065 65.1541935 18.3322581 65.1548387 18.3329032 65.1696774 18.3509677 65.1696774 18.3509677 65.1980645 18.3864516 65.2109677 18.4303226 65.2064516 18.476129 65.2 18.5232258 65.176129 18.5645161 65.14 18.5941935 63.6141935 19.4606452 62.8458065 20.6090323 62.8458065 22.0148387 62.8458065 24.396129 64.8387097 25.6451613 66.8090323 25.6451613 68.1619355 25.6451613 69.2174194 25.1251613 70.2335484 23.9574194 70.2380645 23.9535484 70.2529032 23.9329032 70.2529032 23.9329032 70.3141935 23.8729032 70.4270968 23.8729032 70.4954839 23.9419355L71.7264516 25.2174194C71.7277419 25.2193548 71.7593548 25.2496774 71.7593548 25.2496774 71.8258065 25.3148387 71.9109677 25.3509677 72.0006452 25.3509677L73.6296774 25.3509677C73.8180645 25.3509677 73.9709677 25.1980645 73.9709677 25.0109677 73.9709677 24.923871 73.9341935 24.8393548 73.8748387 24.7754839M61.3267097 23.8372903C61.3254194 23.8372903 61.2538065 23.8392258 61.2538065 23.8392258 59.411871 23.8392258 58.4789677 22.8624516 58.4789677 20.9392258L58.4789677 15.2695484C58.4789677 15.1714839 58.5589677 15.0908387 58.6596129 15.0908387L61.5447742 15.0908387C61.7357419 15.0908387 61.8892903 14.936 61.8892903 14.7482581L61.8892903 13.4895484C61.8892903 13.3005161 61.7357419 13.1456774 61.5447742 13.1456774L58.668 13.1456774C58.5634839 13.1456774 58.4789677 13.0630968 58.4789677 12.9585806L58.4789677 10.3547097C58.4867097 10.1695484 58.3389677 10.0076129 58.1499355 9.99987097L58.1099355 9.99987097 56.6338065 10.1147097C56.451871 10.1147097 56.2970323 10.2682581 56.2970323 10.4572903L56.2970323 12.9669677C56.2970323 13.0656774 56.2163871 13.1456774 56.1163871 13.1456774L54.3047742 13.1443871C54.1157419 13.1443871 53.9596129 13.2979355 53.9596129 13.4863226L53.9570323 14.7534194C53.9596129 14.8469677 53.9989677 14.9327742 54.0654194 14.9947097 54.131871 15.0592258 54.2189677 15.092129 54.3125161 15.0908387L56.1176774 15.0908387C56.2170323 15.0908387 56.2989677 15.1701935 56.2989677 15.2689032L56.2970323 21.3179355C56.2970323 24.5643871 58.7402581 25.7224516 60.884129 25.7224516 60.884129 25.7224516 61.1370323 25.7276129 61.331871 25.7076129 61.5260645 25.6901935 61.6712258 25.5540645 61.6712258 25.3656774L61.671871 24.1779355C61.671871 23.9901935 61.5163871 23.8372903 61.3267097 23.8372903M50.8359355 20.1698065C50.5436774 22.2375484 49.5262581 23.4304516 47.6469032 23.7388387 46.3230323 23.9549677 45.1236774 23.4110968 45.0604516 21.9949677 44.9888387 20.4388387 46.7965806 19.1304516 50.1365806 19.2730323 50.1365806 19.2730323 50.3817419 19.287871 50.5462581 19.3085161 50.6933548 19.3246452 50.7830323 19.3704516 50.8391613 19.4575484 50.8927097 19.5388387 50.9030323 19.704 50.8359355 20.1698065M53.0636774 24.860129C52.9462581 24.5317419 52.914 24.1685161 52.9043226 24.0091613 52.8985161 23.8923871 52.8933548 23.4149677 52.8933548 23.4149677L52.894 17.4246452C52.894 14.2620645 50.6559355 13.1349677 48.5617419 13.1349677 46.9036774 13.1349677 45.3920645 13.5698065 44.4172258 14.2188387 44.3352903 14.2723871 44.2843226 14.3536774 44.2662581 14.4369032 44.2475484 14.524 44.2662581 14.6143226 44.3159355 14.687871 44.3223871 14.6988387 45.0856129 15.7317419 45.0856129 15.7317419 45.1946452 15.8814194 45.4056129 15.9143226 45.5572258 15.8052903 45.5546452 15.807871 45.6617419 15.7375484 45.6617419 15.7375484 46.4217419 15.264 47.3204516 14.9923871 48.2346452 14.9923871 50.8198065 14.9923871 50.7436774 17.0149677 50.7436774 17.2794839 50.7436774 17.4136774 50.6623871 17.4472258 50.5649677 17.4433548L50.1662581 17.4356129C48.1617419 17.3607742 43.0746452 18.0452903 43.0746452 22.0775484 43.0746452 24.4472258 45.0494839 25.6536774 46.8907742 25.6536774 48.6752903 25.6536774 50.1120645 24.9446452 50.8262581 24.0794839L50.8352903 24.0698065C50.8443226 24.0588387 50.857871 24.0517419 50.8727097 24.0517419 50.8972258 24.0517419 50.917871 24.0730323 50.917871 24.0969032 50.9159355 24.207871 50.9172258 24.4575484 50.9404516 24.6749677 50.9572258 24.8723871 50.9830323 25.0188387 51.0159355 25.1259355 51.0456129 25.2194839 51.1069032 25.3136774 51.1985161 25.3607742 51.2417419 25.3827097 51.290129 25.3962581 51.3423871 25.3981935 51.3436774 25.3981935 52.7733548 25.3988387 52.7733548 25.3988387 52.9598065 25.3988387 53.1107742 25.2491613 53.1107742 25.0685161 53.1107742 25.0104516 53.0636774 24.860129 53.0636774 24.860129"/>
    <path fill="#CFD8DC" d="M80.7596774 23.8372903C80.7577419 23.8372903 80.6867742 23.8392258 80.6867742 23.8392258 78.8435484 23.8392258 77.9112903 22.8624516 77.9112903 20.9392258L77.9112903 15.2695484C77.9112903 15.1714839 77.9925806 15.0908387 78.0906452 15.0908387L80.9777419 15.0908387C81.1674194 15.0908387 81.3229032 14.936 81.3229032 14.7482581L81.3229032 13.4895484C81.3229032 13.3005161 81.1674194 13.1456774 80.9777419 13.1456774L78.1009677 13.1456774C77.9958065 13.1456774 77.9112903 13.0630968 77.9112903 12.9585806L77.9112903 10.3547097C77.9190323 10.1695484 77.7719355 10.0076129 77.5822581 9.99987097L77.5429032 9.99987097C77.5416129 9.99987097 76.066129 10.1147097 76.066129 10.1147097 75.8835484 10.1147097 75.7293548 10.2682581 75.7293548 10.4572903L75.7293548 12.9669677C75.7293548 13.0656774 75.6480645 13.1456774 75.5493548 13.1456774L73.7358065 13.1443871C73.546129 13.1443871 73.3932258 13.2979355 73.3932258 13.4863226L73.3906452 14.7534194C73.3945161 14.8469677 73.4319355 14.9327742 73.4977419 14.9947097 73.5641935 15.0592258 73.6506452 15.092129 73.7441935 15.0908387L75.55 15.0908387C75.6487097 15.0908387 75.7293548 15.1701935 75.7293548 15.2689032L75.7293548 21.3179355C75.7293548 24.5643871 78.1732258 25.7224516 80.3170968 25.7224516 80.3170968 25.7224516 80.5706452 25.7276129 80.7654839 25.7076129 80.9590323 25.6901935 81.1029032 25.5540645 81.1029032 25.3656774L81.1041935 24.1779355C81.1041935 23.9901935 80.95 23.8372903 80.7596774 23.8372903M18.823871.258C8.81806452.258.677419355 8.39929032.677419355 18.4044516.677419355 28.4109032 8.81806452 36.5515484 18.823871 36.5515484 28.8290323 36.5515484 36.9716129 28.4109032 36.9716129 18.4044516 36.9716129 8.39929032 28.8290323.258 18.823871.258M34.4922581 25.9238065C34.3116129 26.2850968 34.1193548 26.6083226 33.9529032 26.8496129 33.6535484 27.2844516 33.3425806 27.6044516 32.9187097 28.0296129 29.2658065 31.6992903 20.9019355 35.718 8.73806452 30.6309032 5.85677419 29.4276774 3.96967742 27.4109032 3.16774194 25.9450968 2.91677419 25.4270323 2.6916129 24.8954194 2.4916129 24.3489677 2.68516129 24.738 2.90516129 25.1057419 3.15225806 25.4586452 7.24064516 31.3012258 16.6283871 30.9425161 18.4658065 30.7360645 30.8090323 29.3509032 34.623871 24.9070323 35.7574194 22.3289677 35.4658065 23.5857419 35.0387097 24.7876774 34.4922581 25.9238065M35.6135484 14.5360645C35.6135484 15.4083226 34.5412903 20.7573548 23.9864516 21.7289677 22.4909677 21.8663871 5.40774194 22.0612258 2.17096774 15.1689677 2.12129032 15.0650968 2.07806452 14.9554194 2.0516129 14.8425161 2.01419355 14.6934839 2 14.5838065 1.99677419 14.4638065 1.99354839 14.3689677 1.99870968 14.2838065 2.00774194 14.2031613 2.02322581 14.054129 2.09354839 13.7115484 2.14387097 13.5225161 2.33096774 12.8838065 2.55290323 12.2605806 2.8083871 11.6554194 2.78193548 11.8599355 2.77354839 12.0883226 2.77935484 12.3702581 2.78903226 12.7528387 2.8683871 13.1728387 3.01483871 13.581871 4.39548387 17.4554194 12.923871 20.8244516 23.2619355 17.9676774 27.6470968 16.7560645 34.1974194 14.4302581 34.1974194 10.8696129 34.1974194 10.7496129 34.2309677 10.5257419 34.0767742 10.0799355 34.6412903 11.1128387 35.1045161 12.2089677 35.4535484 13.354129 35.6135484 13.9115484 35.6135484 14.174129 35.6135484 14.5360645M27.5974194 3.40896774C27.5916129 3.40509677 27.5832258 3.40058065 27.576129 3.39606452 28.2432258 3.79541935 28.6870968 4.10316129 28.6870968 4.60767742 28.6870968 6.37864516 24.4154839 7.99929032 18.836129 8.14445161 13.2587097 8.29025806 8.63612903 6.90058065 8.5116129 5.13477419 8.47096774 4.56122581 8.93419355 4.10574194 9.72709677 3.60251613 12.3754839 1.96896774 15.4916129 1.02509677 18.823871 1.02509677 22.0225806 1.02509677 25.0212903 1.89541935 27.5974194 3.40896774M7.35483871 5.35929032C6.42516129 6.44187097 6.42645161 7.41025806 6.42645161 7.55283871 6.42645161 9.15864516 8.73806452 11.7276774 15.4309677 11.7276774 19.3993548 11.7276774 22.6025806 10.9502581 25.0212903 10.1360645 28.8980645 8.83219355 30.816129 7.23864516 30.7483871 6.05090323 30.7425806 5.94703226 30.723871 5.8296129 30.6780645 5.70767742 31.3967742 6.37993548 32.0606452 7.11283871 32.6587097 7.89864516 32.6567742 7.89670968 32.6548387 7.89541935 32.6529032 7.89348387 32.9670968 8.32767742 33.2380645 8.88058065 33.2322581 9.40380645 33.2141935 11.1489677 31.5432258 13.8309032 23.9522581 14.4650968 20.1922581 14.7805806 15.3329032 14.1089677 13.4987097 13.8721935 8.08129032 13.174129 4.12774194 11.0470323 4.12774194 9.40574194 4.12774194 9.27993548 4.21419355 8.99090323 4.44129032 8.65864516 5.26967742 7.43993548 6.25096774 6.33154839 7.35483871 5.35929032M1.46580645 17.5502581C1.80903226 20.2263871 4.22387097 23.1689677 8.35677419 24.4870323 13.3954839 26.0915484 16.4883871 26.1438065 23.8141935 24.4921935 35.0251613 21.9638065 35.9354839 17.0683226 36.0096774 15.8070323 36.1374194 16.6547742 36.203871 17.521871 36.203871 18.4044516 36.203871 18.6915484 36.1954839 18.9754194 36.1825806 19.2586452 36.163871 19.5457419 36.0980645 20.0663871 36.0522581 20.298 36.0154839 20.4728387 35.9845161 20.598 35.9341935 20.7289677 35.0025806 23.1870323 31.5348387 27.9089677 20.9496774 28.2934839 17.5529032 28.4154194 11.5722581 27.2296129 7.80645161 25.674129 4.92516129 24.4838065 2.09548387 22.2315484 1.54516129 20.0134839 1.51870968 19.9070323 1.49806452 19.7070323 1.48516129 19.5812258 1.45870968 19.1921935 1.44451613 18.7999355 1.44451613 18.4044516 1.44451613 18.1186452 1.4516129 17.834129 1.46580645 17.5502581M18.823871 35.7831613C14.4270968 35.7831613 10.4070968 34.141871 7.34322581 31.4399355 11.0077419 33.9509032 15.7554839 34.2850968 18.0864516 34.2850968 25.8245161 34.2850968 30.2458065 31.394129 32.5283871 29.0805806 29.343871 33.1573548 24.3851613 35.7831613 18.823871 35.7831613"/>
  </g>
</svg>
