<svg xmlns="http://www.w3.org/2000/svg" width="52" height="60" viewBox="0 0 52 60">
  <g fill="#CFD8DC" fill-rule="evenodd">
    <path d="M3.54824981 57.999459L2.37001233 57.999459C2.3648446 58.3473809 2.42685648 58.6478544 2.55604983 58.9008885 2.68524318 59.1539227 2.85965159 59.3621455 3.07928029 59.5255634 3.29890898 59.6889813 3.55212415 59.8089071 3.83893339 59.8853445 4.12574263 59.9617819 4.42159097 60 4.72648728 60 5.10373187 60 5.4357538 59.9551925 5.72256304 59.8655763 6.00937228 59.77596 6.24966831 59.6507627 6.44345834 59.4899806 6.63724836 59.3291985 6.78323466 59.1381079 6.88142161 58.9167031 6.97960856 58.6952982 7.02870129 58.4554466 7.02870129 58.1971409 7.02870129 57.8808482 6.96281367 57.6212286 6.83103645 57.4182741 6.69925924 57.2153197 6.54293762 57.0532221 6.36206693 56.9319766 6.18119624 56.8107311 5.99903635 56.7224341 5.81558179 56.6670828 5.63212723 56.6117316 5.48872476 56.5735135 5.38537008 56.5524273 5.0391319 56.4628111 4.75878653 56.3890106 4.54432557 56.3310236 4.3298646 56.2730366 4.16191577 56.2150505 4.04047401 56.1570635 3.91903226 56.0990765 3.83764167 56.0358189 3.7962998 55.9672888 3.75495793 55.8987588 3.7342873 55.8091439 3.7342873 55.6984414 3.7342873 55.5771959 3.76012559 55.4770381 3.81180293 55.3979649 3.86348027 55.3188918 3.92936789 55.2529984 4.00946777 55.200283 4.08956764 55.1475676 4.17870972 55.1106673 4.27689667 55.0895811 4.37508361 55.0684949 4.47326909 55.057952 4.57145603 55.057952 4.72132032 55.057952 4.85955513 55.0711307 4.98616462 55.0974884 5.1127741 55.1238461 5.22517063 55.1686536 5.32335758 55.2319121 5.42154453 55.2951706 5.50035129 55.3821498 5.55978023 55.4928522 5.61920917 55.6035547 5.65409085 55.7432485 5.66442632 55.9119379L6.8426638 55.9119379C6.8426638 55.5851022 6.78194383 55.3070324 6.66050208 55.0777202 6.53906033 54.848408 6.37498724 54.6599532 6.16827787 54.5123499 5.96156851 54.3647467 5.72514823 54.2579995 5.45900992 54.1921052 5.19287162 54.1262109 4.91511008 54.0932642 4.62571697 54.0932642 4.37766574 54.0932642 4.12961822 54.1275288 3.88156699 54.1960588 3.63351575 54.2645889 3.41130652 54.3700182 3.21493263 54.5123499 3.01855873 54.6546816 2.85965329 54.8325936 2.73821154 55.0460911 2.61676979 55.2595886 2.55604983 55.5113011 2.55604983 55.801236 2.55604983 56.0595417 2.60385065 56.2796254 2.69945373 56.4614936 2.79505681 56.6433619 2.92037248 56.7949165 3.0754045 56.9161621 3.23043653 57.0374076 3.40613685 57.1362475 3.60251074 57.2126849 3.79888464 57.2891223 4.00042324 57.3536978 4.2071326 57.4064132 4.40867423 57.4644002 4.60762901 57.5171149 4.8040029 57.5645588 5.0003768 57.6120027 5.17607712 57.667353 5.33110914 57.7306116 5.48614116 57.7938701 5.61145684 57.8729421 5.70705992 57.9678299 5.802663 58.0627177 5.85046382 58.1865971 5.85046382 58.3394719 5.85046382 58.4818036 5.81429022 58.5990937 5.74194195 58.6913457 5.66959367 58.7835977 5.57915968 58.8560804 5.47063726 58.9087958 5.36211485 58.9615112 5.24584258 58.9970936 5.12181696 59.015544 4.99779134 59.0339944 4.88151907 59.0432195 4.77299666 59.0432195 4.6127969 59.0432195 4.4577672 59.0234515 4.30790292 58.9839149 4.15803863 58.9443784 4.0275553 58.8837565 3.91644902 58.8020476 3.80534274 58.7203386 3.71620066 58.6135915 3.64902012 58.4818029 3.58183957 58.3500143 3.54824981 58.1892346 3.54824981 57.999459zM8.6543949 57.0743076C8.6543949 57.3115271 8.68152509 57.5421537 8.7357863 57.7661943 8.79004751 57.9902349 8.87660576 58.1918685 8.99546364 58.371101 9.11432152 58.5503335 9.26935122 58.6939809 9.46055738 58.8020476 9.65176354 58.9101142 9.88430808 58.9641467 10.158198 58.9641467 10.4320879 58.9641467 10.6646324 58.9101142 10.8558386 58.8020476 11.0470448 58.6939809 11.2020745 58.5503335 11.3209323 58.371101 11.4397902 58.1918685 11.5263485 57.9902349 11.5806097 57.7661943 11.6348709 57.5421537 11.6620011 57.3115271 11.6620011 57.0743076 11.6620011 56.826545 11.6348709 56.5866934 11.5806097 56.3547454 11.5263485 56.1227975 11.4397902 55.9158925 11.3209323 55.7340242 11.2020745 55.5521559 11.0470448 55.4071906 10.8558386 55.299124 10.6646324 55.1910573 10.4320879 55.1370248 10.158198 55.1370248 9.88430808 55.1370248 9.65176354 55.1910573 9.46055738 55.299124 9.26935122 55.4071906 9.11432152 55.5521559 8.99546364 55.7340242 8.87660576 55.9158925 8.79004751 56.1227975 8.7357863 56.3547454 8.68152509 56.5866934 8.6543949 56.826545 8.6543949 57.0743076zM7.43739961 57.0743076C7.43739961 56.6525841 7.49941149 56.2611778 7.62343711 55.900077 7.74746272 55.5389762 7.92574687 55.2240062 8.15829491 54.9551574 8.39084294 54.6863087 8.67635596 54.4754501 9.01484254 54.3225753 9.35332913 54.1697005 9.7344438 54.0932642 10.158198 54.0932642 10.5871199 54.0932642 10.9695265 54.1697005 11.3054292 54.3225753 11.6413319 54.4754501 11.925553 54.6863087 12.1581011 54.9551574 12.3906491 55.2240062 12.5689333 55.5389762 12.6929589 55.900077 12.8169845 56.2611778 12.8789964 56.6525841 12.8789964 57.0743076 12.8789964 57.485488 12.8169845 57.8689871 12.6929589 58.2248164 12.5689333 58.5806456 12.3906491 58.8903442 12.1581011 59.1539214 11.925553 59.4174986 11.6413319 59.6244036 11.3054292 59.7746426 10.9695265 59.9248816 10.5871199 60 10.158198 60 9.7344438 60 9.35332913 59.9248816 9.01484254 59.7746426 8.67635596 59.6244036 8.39084294 59.4174986 8.15829491 59.1539214 7.92574687 58.8903442 7.74746272 58.5806456 7.62343711 58.2248164 7.49941149 57.8689871 7.43739961 57.485488 7.43739961 57.0743076zM18.3339618 57.7385188L18.3339618 54.227688 17.1169665 54.227688 17.1169665 57.7385188C17.1169665 58.1602424 17.034284 58.469941 16.8689165 58.6676239 16.703549 58.8653068 16.4038249 58.9641467 15.9697352 58.9641467 15.721684 58.9641467 15.5240212 58.9285644 15.3767407 58.8573985 15.2294603 58.7862327 15.11448 58.693982 15.0317962 58.5806438 14.9491125 58.4673056 14.8948521 58.3368369 14.8690134 58.1892336 14.8431747 58.0416304 14.8302556 57.8913936 14.8302556 57.7385188L14.8302556 54.227688 13.6132603 54.227688 13.6132603 57.7385188C13.6132603 58.5081643 13.8186746 59.0774825 14.2295095 59.4464906 14.6403444 59.8154987 15.2204138 60 15.9697352 60 16.7087212 60 17.2874988 59.8141809 17.7060852 59.442537 18.1246717 59.0708931 18.3339618 58.5028928 18.3339618 57.7385188zM19.3085241 54.227688L19.3085241 59.8734836 23.2230631 59.8734836 23.2230631 58.829723 20.5255194 58.829723 20.5255194 54.227688 19.3085241 54.227688zM27.5230457 56.1254344L28.7012832 56.1254344C28.665109 55.7985986 28.5772589 55.5086681 28.4377301 55.2556339 28.2982012 55.0025998 28.121209 54.7904233 27.906748 54.6190982 27.6922871 54.447773 27.4494072 54.3173042 27.1781012 54.227688 26.9067951 54.1380717 26.6186983 54.0932642 26.313802 54.0932642 25.8900478 54.0932642 25.5089331 54.1697005 25.1704465 54.3225753 24.83196 54.4754501 24.5464469 54.6863087 24.3138989 54.9551574 24.0813509 55.2240062 23.9030667 55.5389762 23.7790411 55.900077 23.6550155 56.2611778 23.5930036 56.6525841 23.5930036 57.0743076 23.5930036 57.485488 23.6550155 57.8689871 23.7790411 58.2248164 23.9030667 58.5806456 24.0813509 58.8903442 24.3138989 59.1539214 24.5464469 59.4174986 24.83196 59.6244036 25.1704465 59.7746426 25.5089331 59.9248816 25.8900478 60 26.313802 60 26.6548724 60 26.9675157 59.9472853 27.251741 59.8418545 27.5359664 59.7364236 27.7840139 59.5835511 27.995891 59.3832324 28.2077681 59.1829137 28.3783008 58.9404263 28.5074941 58.6557629 28.6366875 58.3710996 28.7167862 58.0521759 28.7477926 57.6989825L27.5695551 57.6989825C27.5230455 58.0785336 27.395146 58.3842786 27.1858527 58.6162266 26.9765595 58.8481745 26.6858788 58.9641467 26.313802 58.9641467 26.0399121 58.9641467 25.8073675 58.9101142 25.6161614 58.8020476 25.4249552 58.6939809 25.2699255 58.5503335 25.1510676 58.371101 25.0322098 58.1918685 24.9456515 57.9902349 24.8913903 57.7661943 24.8371291 57.5421537 24.8099989 57.3115271 24.8099989 57.0743076 24.8099989 56.826545 24.8371291 56.5866934 24.8913903 56.3547454 24.9456515 56.1227975 25.0322098 55.9158925 25.1510676 55.7340242 25.2699255 55.5521559 25.4249552 55.4071906 25.6161614 55.299124 25.8073675 55.1910573 26.0399121 55.1370248 26.313802 55.1370248 26.4636663 55.1370248 26.6070687 55.1620642 26.7440137 55.2121439 26.8809586 55.2622236 27.0036905 55.3320705 27.1122129 55.4216867 27.2207353 55.511303 27.3111693 55.6154144 27.3835176 55.7340242 27.4558659 55.8526339 27.5023748 55.9831027 27.5230457 56.1254344zM30.9393502 57.6752606L30.9393502 59.8734836 32.1563455 59.8734836 32.1563455 57.7068897 34.2105095 54.227688 32.8539861 54.227688 31.5672268 56.45754 30.2727159 54.227688 28.9084409 54.227688 30.9393502 57.6752606zM38.2934484 56.1254344L39.4716858 56.1254344C39.4355117 55.7985986 39.3476616 55.5086681 39.2081327 55.2556339 39.0686039 55.0025998 38.8916117 54.7904233 38.6771507 54.6190982 38.4626897 54.447773 38.2198099 54.3173042 37.9485039 54.227688 37.6771978 54.1380717 37.389101 54.0932642 37.0842047 54.0932642 36.6604505 54.0932642 36.2793358 54.1697005 35.9408492 54.3225753 35.6023626 54.4754501 35.3168496 54.6863087 35.0843016 54.9551574 34.8517535 55.2240062 34.6734694 55.5389762 34.5494438 55.900077 34.4254182 56.2611778 34.3634063 56.6525841 34.3634063 57.0743076 34.3634063 57.485488 34.4254182 57.8689871 34.5494438 58.2248164 34.6734694 58.5806456 34.8517535 58.8903442 35.0843016 59.1539214 35.3168496 59.4174986 35.6023626 59.6244036 35.9408492 59.7746426 36.2793358 59.9248816 36.6604505 60 37.0842047 60 37.4252751 60 37.7379183 59.9472853 38.0221437 59.8418545 38.3063691 59.7364236 38.5544166 59.5835511 38.7662937 59.3832324 38.9781708 59.1829137 39.1487034 58.9404263 39.2778968 58.6557629 39.4070901 58.3710996 39.4871888 58.0521759 39.5181952 57.6989825L38.3399577 57.6989825C38.2934481 58.0785336 38.1655486 58.3842786 37.9562554 58.6162266 37.7469622 58.8481745 37.4562815 58.9641467 37.0842047 58.9641467 36.8103147 58.9641467 36.5777702 58.9101142 36.386564 58.8020476 36.1953579 58.6939809 36.0403282 58.5503335 35.9214703 58.371101 35.8026124 58.1918685 35.7160542 57.9902349 35.661793 57.7661943 35.6075318 57.5421537 35.5804016 57.3115271 35.5804016 57.0743076 35.5804016 56.826545 35.6075318 56.5866934 35.661793 56.3547454 35.7160542 56.1227975 35.8026124 55.9158925 35.9214703 55.7340242 36.0403282 55.5521559 36.1953579 55.4071906 36.386564 55.299124 36.5777702 55.1910573 36.8103147 55.1370248 37.0842047 55.1370248 37.2340689 55.1370248 37.3774714 55.1620642 37.5144164 55.2121439 37.6513613 55.2622236 37.7740932 55.3320705 37.8826156 55.4216867 37.991138 55.511303 38.081572 55.6154144 38.1539203 55.7340242 38.2262685 55.8526339 38.2727774 55.9831027 38.2934484 56.1254344zM40.2757138 54.227688L40.2757138 59.8734836 44.1902528 59.8734836 44.1902528 58.829723 41.4927091 58.829723 41.4927091 54.227688 40.2757138 54.227688zM44.8004918 54.227688L44.8004918 59.8734836 49.0018385 59.8734836 49.0018385 58.829723 46.017487 58.829723 46.017487 57.4459496 48.6995276 57.4459496 48.6995276 56.4812618 46.017487 56.4812618 46.017487 55.2714485 48.939826 55.2714485 48.939826 54.227688 44.8004918 54.227688zM25.6857764 49.4122481C12.4961875 49.4122481 1.76575628 38.6817046 1.76575628 25.492228 1.76575628 12.3027514 12.4961875 1.57220789 25.6857764 1.57220789 38.8753653 1.57220789 49.6057965 12.3027514 49.6057965 25.492228 49.6057965 38.6817046 38.8753653 49.4122481 25.6857764 49.4122481M43.7115891 7.46641528C38.8967024 2.65164091 32.4950088 0 25.6857764 0 18.876544 0 12.4748503 2.65164091 7.66007597 7.46641528 2.8451893 12.281302.193548387 18.6829956.193548387 25.492228.193548387 32.3014604 2.8451893 38.703154 7.66007597 43.5180407 12.4748503 48.332815 18.876544 50.984456 25.6857764 50.984456 32.4950088 50.984456 38.8967024 48.332815 43.7115891 43.5180407 48.5263634 38.703154 51.1780043 32.3014604 51.1780043 25.492228 51.1780043 18.6829956 48.5263634 12.281302 43.7115891 7.46641528"/>
    <path d="M40.4339399,26.7162367 C42.7270051,26.2195314 45.2355751,25.5367439 47.9607729,24.6719173 C47.9706553,24.9443584 47.9773934,25.2173611 47.9773934,25.4922729 C47.9773934,27.0530261 47.8150067,28.5764956 47.5083139,30.047633 C45.0254607,28.6826196 42.6609724,27.5691595 40.4339399,26.7162367 Z M47.1569254,31.4882246 C43.4851462,31.3399879 40.2457241,31.0229634 37.449777,30.5380495 C36.6955664,29.9534128 35.9493292,29.4220065 35.2125252,28.9452906 C34.8503559,28.7109194 34.4893095,28.4908103 34.1291616,28.2812574 C34.1964297,28.0730522 34.2543768,27.8609164 34.3063719,27.6464223 C35.5389829,27.5564696 36.8594129,27.3883556 38.2703572,27.1412944 C41.0285714,28.0467738 44.0228413,29.3955036 47.2412632,31.1832163 C47.2141987,31.2854098 47.1853375,31.3867049 47.1569254,31.4882246 Z M44.5493063,37.3557045 C42.7261067,35.2839837 40.9272763,33.4770676 39.1665157,31.9492184 C41.4586825,32.2623124 44.0065577,32.4779295 46.815644,32.5983157 C46.2475155,34.2829364 45.482524,35.8774921 44.5493063,37.3557045 Z M42.263653,40.3783864 C39.4719733,38.9957419 37.0651476,37.6284825 35.0390208,36.2713302 C34.5113205,34.9877348 33.946224,33.8058836 33.3451914,32.729595 C33.0626432,32.2235687 32.7697633,31.7412378 32.4690224,31.2775487 C32.6303983,31.0852902 32.7836886,30.8861813 32.9287809,30.6807835 C34.1616165,31.0374501 35.5132661,31.3467259 36.9881094,31.6086108 C39.2290671,33.3702697 41.5363945,35.6096553 43.9035781,38.3225 C43.3967657,39.0397637 42.849525,39.7267063 42.263653,40.3783864 Z M37.559607,44.3482114 C37.023821,42.06705 36.4118952,39.9651204 35.7259634,38.057583 C37.4065413,39.1053472 39.3109342,40.1596249 41.454752,41.2305231 C40.2790774,42.4082191 38.9727973,43.4553096 37.559607,44.3482114 Z M36.5219497,44.9660891 C34.5897062,42.7786987 32.9382142,40.7304487 31.5648906,38.8158364 C31.4363064,37.3093243 31.2268659,35.8973693 30.9390395,34.5826666 C31.8754016,35.3952735 32.9343959,36.2048483 34.1259049,37.0162199 C35.0576627,39.3317452 35.8653284,41.9790064 36.547442,44.95149 C36.5389071,44.9563189 36.5304846,44.9612601 36.5219497,44.9660891 Z M31.548607,46.9982801 C31.7111059,44.8336867 31.7587213,42.7893672 31.689095,40.8776747 C32.8034535,42.3411757 34.0705407,43.8792442 35.4984424,45.5034473 C34.2433713,46.1211004 32.9221552,46.6236454 31.548607,46.9982801 Z M31.6645012,32.117557 C32.2192659,32.9965335 32.7455064,33.9538958 33.2410888,34.9945851 C32.2998978,34.283161 31.4643816,33.5738707 30.7316204,32.8662648 C31.0593134,32.637284 31.3708352,32.3873029 31.6645012,32.117557 Z M30.464345,47.2651062 C29.7383219,47.4243484 28.9996088,47.5493389 28.2492164,47.6355858 L28.4559618,47.5606813 C27.1445158,43.9399988 26.1776079,40.6841809 25.5566981,37.8029976 C25.8162247,36.8847159 26.0293712,35.9936109 26.1953514,35.1319287 C26.2397101,34.9019371 26.2796891,34.6738547 26.3175344,34.4471199 C26.6959873,34.4181463 27.067253,34.3632313 27.4312191,34.2883269 C27.5093803,34.4406064 27.5887768,34.5936721 27.6710931,34.7479731 C28.4253037,36.161388 29.3535802,37.6456645 30.4678264,39.2175355 C30.6594111,41.6533347 30.6381863,44.335746 30.4032535,47.260165 L30.464345,47.2651062 Z M25.6857314,47.7839348 C24.3090388,47.7839348 22.9614321,47.6575967 21.6529059,47.4173858 C23.0032079,44.7754027 24.0855607,42.2700894 24.8914296,39.9232322 C25.4927991,42.2959186 26.3036091,44.8947782 27.3218384,47.7235171 C26.781448,47.7630469 26.2360042,47.7839348 25.6857314,47.7839348 Z M21.1686659,37.5194387 C21.7968752,36.6903236 22.3626455,35.8718771 22.8647413,35.0653345 C23.0468928,34.7726792 23.2192742,34.4811469 23.3849175,34.1901762 C23.522598,34.2258877 23.6616261,34.258118 23.8017772,34.2874285 C23.9356395,35.3842681 24.1311547,36.5454559 24.3911305,37.7758209 C23.5599941,40.6422928 22.2693237,43.7731202 20.5231622,47.1580838 C20.5437132,43.5104492 20.7571966,40.3021343 21.1686659,37.5194387 Z M13.4330661,44.1047437 C13.0533779,43.8539766 12.6813262,43.5927655 12.3182584,43.3199874 C13.7366146,40.2115078 15.1490187,37.5066364 16.5525512,35.210876 C17.5668499,34.6077097 18.5051211,33.9859014 19.3652311,33.346462 C19.6676565,33.1216363 19.9591888,32.8933293 20.2434215,32.6626639 C20.4573541,32.8250505 20.67926,32.9773301 20.9075671,33.1201764 C20.8593901,33.3003065 20.8119993,33.4822334 20.7661806,33.6671924 C20.5033973,34.7269729 20.2792454,35.8591871 20.0929388,37.0701241 C18.3473388,39.3426383 16.1247983,41.6902816 13.4330661,44.1047437 Z M19.4013919,46.8805891 C17.6428774,46.3629958 15.9742033,45.6341651 14.4246801,44.7231829 C16.4917966,42.8524802 18.2925361,41.0103017 19.8121874,39.2116959 C19.5600726,41.5020659 19.4244135,44.0467966 19.4013919,46.8805891 Z M8.09115292,39.1635189 C10.4801228,38.2739862 12.6565077,37.3172977 14.600992,36.2989562 C13.544356,38.1697712 12.4824419,40.2696795 11.4123298,42.6009269 C10.1870183,41.576858 9.07288444,40.4242051 8.09115292,39.1635189 Z M6.96320605,37.5779473 L7.15063569,37.7663876 C9.33667847,35.5932594 11.4055918,33.7373803 13.3517605,32.2025685 C14.6276072,31.9726892 15.8283249,31.6900287 16.9506567,31.3550361 C17.3179918,31.2453185 17.6761183,31.1283013 18.0286298,31.0069044 C17.2626277,32.0146896 16.4957271,33.1412889 15.7265805,34.3891728 C13.3598462,35.7758601 10.5813056,37.0554128 7.39848304,38.2239001 C7.24979709,38.0110905 7.10436786,37.7959227 6.96320605,37.5779473 Z M4.67665427,32.9442014 C6.98656457,32.9246611 9.15228094,32.7894512 11.1577444,32.5366627 C9.67346786,33.793306 8.12147407,35.2252505 6.50041543,36.8304747 C5.77360618,35.6052756 5.1608943,34.3050596 4.67665427,32.9442014 Z M3.75601425,29.5011784 C6.70042273,28.078218 9.36464131,26.9835121 11.7739376,26.2136917 C13.103464,26.582936 14.377177,26.8632382 15.5908092,27.053363 C16.0205834,27.1207434 16.4437319,27.1761076 16.8611531,27.2206909 C16.9255014,27.5587156 17.0070316,27.8905637 17.1083267,28.2139894 C15.7617306,29.0075051 14.3489895,29.9827232 12.8656114,31.1441357 C10.3118966,31.5876106 7.45845154,31.8147946 4.31178974,31.8244525 C4.08662711,31.0658622 3.89998357,30.290876 3.75601425,29.5011784 Z M3.39406953,25.4922729 C3.39406953,24.6883132 3.43797906,23.8944605 3.52130607,23.1122871 C5.76159002,24.1452276 7.89911895,24.9944445 9.9201922,25.6533119 C7.96986831,26.3529444 5.86120062,27.2478676 3.57565955,28.3422366 C3.45594715,27.4089066 3.39406953,26.4576085 3.39406953,25.4922729 Z M3.7255808,21.6556364 C7.1718605,21.5533306 10.1965639,21.6249784 12.8254078,21.8772055 C13.8345406,22.625801 14.8251439,23.2854545 15.7954208,23.8547061 C15.8798708,23.9041183 15.9637593,23.9502739 16.0478725,23.9985631 C16.0124978,24.0044027 15.9777969,24.0091194 15.9421976,24.0150713 C14.6354683,24.2352927 13.2433905,24.5748896 11.7545096,25.0380171 C9.25773117,24.3255823 6.56330375,23.2946632 3.67717926,21.9470564 C3.69278903,21.8496918 3.70873571,21.7525518 3.7255808,21.6556364 Z M5.76394833,15.4981965 C7.62645318,17.4621088 9.45133734,19.1764892 11.225574,20.6285355 C9.03739747,20.4862507 6.61619731,20.453122 3.95254024,20.5254436 C4.35547466,18.7612017 4.96897264,17.0765809 5.76394833,15.4981965 Z M7.61937825,12.4529421 C10.9825555,14.0395245 13.8728351,15.6125185 16.2802223,17.1661968 C16.7460451,17.9991301 17.2253439,18.7798436 17.7173326,19.5066528 C17.9243026,19.8122227 18.1349784,20.1066748 18.3475634,20.3949503 C18.0969085,20.7480233 17.8703983,21.1195135 17.6723001,21.5079612 C16.3403031,21.2030652 14.8744439,20.9668971 13.2657383,20.7994569 C11.0370213,19.1246063 8.72070988,17.007853 6.32387894,14.4550366 C6.71985073,13.7631528 7.15389241,13.0959752 7.61937825,12.4529421 Z M12.2727767,7.70206679 C13.1781439,10.4871208 14.173913,12.9920971 15.2513246,15.1965572 C13.2249732,13.9895508 10.9148383,12.7718757 8.31541714,11.5392648 C9.47121454,10.103502 10.8011901,8.81406697 12.2727767,7.70206679 Z M13.859696,6.60466568 C16.2552916,9.07539038 18.2870334,11.447066 19.9322367,13.6935265 C20.109447,15.0001435 20.3416845,16.2270272 20.6288371,17.3705838 C20.6857734,17.5973187 20.7457419,17.8200107 20.8071704,18.0409059 C20.577628,18.188918 20.3557221,18.347711 20.141228,18.5156004 C19.2358609,17.8001335 18.2313323,17.0824206 17.1235996,16.3611141 C15.6878369,13.752372 14.3887439,10.6328869 13.2319358,7.01501194 C13.4389058,6.87508544 13.6478971,6.73785415 13.859696,6.60466568 Z M19.5646769,4.05533058 C19.4583283,6.74066166 19.5012271,9.23586789 19.6946087,11.5198368 C18.3023063,9.75424729 16.6855151,7.91802077 14.8518715,6.01654763 C16.3283993,5.19192459 17.906896,4.52935126 19.5646769,4.05533058 Z M22.7901737,3.39096044 C24.0839885,6.76536778 25.0505595,9.78198553 25.6903358,12.4518191 C25.3214284,13.5988571 25.0243934,14.7054668 24.8002415,15.7688409 C24.7356687,16.0749722 24.6791815,16.3773976 24.6264002,16.6778016 C24.201118,16.725754 23.7843706,16.8026799 23.3790779,16.9082424 C22.708082,15.7300972 21.9192828,14.5138821 21.0113328,13.2598217 C20.6515218,10.4795966 20.5457346,7.33753916 20.6961051,3.84229641 L20.4201826,3.83050485 C21.1951688,3.6420645 21.9863263,3.49596147 22.7901737,3.39096044 Z M25.6857314,3.20061099 C27.0102043,3.20061099 28.3079496,3.31717897 29.5695341,3.53975869 C28.2615695,5.99049389 27.1899975,8.32578412 26.3624546,10.5277736 C25.7549086,8.32342581 24.9481413,5.90705458 23.9452973,3.27068654 C24.5199393,3.22576631 25.0998594,3.20061099 25.6857314,3.20061099 Z M30.9758741,3.83544608 L30.8354984,3.83028025 C30.7203903,6.9868245 30.4793933,9.87923782 30.1214914,12.4683273 C29.0784438,13.6153653 28.207216,14.7556652 27.5105033,15.8851843 C27.3600206,14.8193396 27.1451896,13.6888098 26.8637644,12.488766 C27.7492543,9.80219963 29.0353204,6.89428883 30.7183689,3.77469147 C30.8042788,3.79468097 30.8903011,3.81444587 30.9758741,3.83544608 Z M38.1725434,7.05701235 L38.1450298,7.01781945 C38.7256237,7.41064682 39.2874634,7.82896642 39.8274045,8.27322745 C38.0960668,11.6475225 36.3958362,14.5340962 34.7327772,16.9236276 C33.8842341,17.3600276 33.087237,17.8117004 32.343695,18.2779724 C32.0546333,18.4594501 31.7753418,18.6444091 31.5008792,18.8310527 C31.1129931,18.4917927 30.6955719,18.185549 30.2533323,17.9163646 C30.6230257,16.4172643 30.9375796,14.7634139 31.1945233,12.9596423 C33.008402,11.0133612 35.3417831,9.0387804 38.1725434,7.05701235 Z M31.9486216,4.09632028 C33.7988857,4.63884431 35.5501007,5.41540271 37.1679026,6.39185611 C34.9490681,7.96810682 33.0331081,9.54491904 31.4314775,11.1119611 C31.6791002,8.95814859 31.8518185,6.61555883 31.9486216,4.09632028 Z M44.3086462,13.2553297 C41.5025921,14.0613108 38.9720111,14.9669026 36.7372299,15.9640193 C38.0355367,13.9477749 39.3551807,11.6378646 40.700766,9.03058246 C42.0709452,10.2812738 43.2839036,11.7009776 44.3086462,13.2553297 Z M30.4126868,28.590084 C30.0684855,28.211968 29.7159741,27.8554137 29.354254,27.5225548 C29.5852562,27.5568065 29.8210874,27.5867907 30.0616352,27.6122829 C30.9364566,27.9209972 31.8244172,28.3149476 32.7249554,28.7925619 C32.6385963,28.9804407 32.5451622,29.164389 32.4446532,29.343733 C31.7184054,29.1105971 31.0415699,28.8591561 30.4126868,28.590084 Z M30.187861,31.877683 C29.8663445,30.9366042 29.4935067,30.0513389 29.070695,29.222673 C29.2910287,29.3311554 29.517539,29.4370548 29.7503381,29.540259 C30.1929146,30.0425794 30.6211166,30.5852158 31.0338212,31.1710878 C30.7689042,31.4257855 30.4864682,31.6620659 30.187861,31.877683 Z M29.5255123,33.577352 C29.8027824,34.5927737 30.0281696,35.6697361 30.1977435,36.8119451 C29.5648175,35.8315612 29.0129725,34.8894718 28.5399626,33.9841046 C28.877875,33.8671997 29.2073648,33.7323268 29.5255123,33.577352 Z M26.8040205,29.6353776 C27.3252074,30.6370986 28.0309041,31.6298356 28.9244797,32.6213373 C28.6376641,32.7554242 28.340966,32.8714306 28.0365191,32.9702551 C27.4834389,31.7937944 27.072868,30.682805 26.8040205,29.6353776 Z M26.5700984,32.4404211 C26.6803775,32.7048889 26.7979562,32.9725012 26.9226099,33.2434824 C26.7768437,33.2679639 26.6300669,33.2896379 26.4816055,33.3059215 C26.5167556,33.0143893 26.5461784,32.7258891 26.5700984,32.4404211 Z M21.932422,33.6715722 C22.0503376,33.7254764 22.1696008,33.7770224 22.2903239,33.8259854 C22.0872845,34.1735557 21.8738011,34.523035 21.6467294,34.8745358 C21.7364575,34.4619435 21.8318007,34.0612551 21.932422,33.6715722 Z M18.890312,29.4778199 C18.7491502,29.2365983 18.6207907,28.987291 18.5056826,28.730572 C19.4519272,28.2165723 20.3596526,27.8011725 21.2281852,27.4848218 C20.6495004,27.9974739 20.0712648,28.5769448 19.4928046,29.2242452 C19.2953802,29.3111659 19.0938007,29.3951667 18.890312,29.4778199 Z M19.0374258,31.5624553 C19.1465819,31.6820554 19.2596686,31.7979496 19.3751136,31.9113731 C18.957917,32.2434459 18.5210678,32.5704651 18.0633307,32.8922062 C18.3886654,32.4260466 18.7133263,31.9835824 19.0374258,31.5624553 Z M18.692663,27.3483766 C18.5013029,27.4440567 18.3082582,27.5447903 18.1140905,27.648556 C18.0835448,27.5392876 18.0554696,27.429233 18.0295282,27.3180555 C18.2523325,27.3311946 18.4735646,27.3416386 18.692663,27.3483766 Z M21.8253996,17.4736757 C21.6901897,16.9666387 21.5650869,16.4448903 21.4527863,15.9048369 C21.7465646,16.3627986 22.0225994,16.8148083 22.2807784,17.2605293 C22.2830244,17.2643475 22.2850458,17.2681657 22.2872918,17.2719839 C22.1313063,17.3353214 21.9770053,17.402028 21.8253996,17.4736757 Z M20.9285673,24.9250428 C21.1805697,24.9531179 21.4272941,24.9886049 21.6700879,25.0301561 C21.666382,25.0621617 21.6631253,25.094392 21.6602054,25.1266223 C21.4177485,25.0658677 21.173944,24.9991611 20.9285673,24.9250428 Z M24.2994933,21.590839 C24.3014024,21.6245292 24.3048837,21.6573209 24.3070174,21.6908988 C24.107347,21.7633327 23.9150885,21.8514886 23.731477,21.9530083 C23.5791975,21.767937 23.4223136,21.5827534 23.2564457,21.3974574 C22.8349816,20.5280265 22.4634914,19.5854878 22.1430979,18.5684939 C22.3681482,18.4556319 22.5992628,18.3534384 22.8361046,18.2624749 C23.4476935,19.415914 23.9358641,20.5267912 24.2994933,21.590839 Z M24.3508146,18.759068 C24.2197599,18.4850546 24.0817425,18.2089075 23.9367625,17.9306267 C24.105101,17.8931183 24.2761348,17.8630218 24.4481792,17.8365189 C24.4084248,18.1477037 24.3774299,18.4545089 24.3508146,18.759068 Z M29.2179211,17.375862 C28.8765274,17.2250423 28.5235667,17.0961212 28.1613974,16.9886496 C28.250564,16.8316534 28.3428751,16.6747695 28.4391167,16.5177733 C28.8299226,15.8800184 29.2805848,15.2375469 29.7900925,14.5913695 C29.6181603,15.5723149 29.4270247,16.500816 29.2179211,17.375862 Z M29.5842455,20.2753502 C29.7120436,19.8827474 29.8353496,19.4767809 29.9536021,19.0562153 C30.1621442,19.1956926 30.3645098,19.3437047 30.5583406,19.5019362 C30.2205405,19.7552863 29.8963288,20.0132407 29.5842455,20.2753502 Z M30.19269,22.2963112 C29.7166479,22.4960939 29.25936,22.7105879 28.8197033,22.9387827 C28.7617562,22.8676964 28.7011139,22.7989685 28.6384502,22.7320373 C28.6423807,22.7237271 28.6463112,22.7158661 28.6501294,22.7075558 C29.4344366,21.863954 30.3483386,21.0578605 31.3922846,20.2903985 C31.5177243,20.4277421 31.6368752,20.5707007 31.7523202,20.7168037 C31.2281012,21.29605 30.7082619,21.8218413 30.19269,22.2963112 Z M33.3113889,24.188688 C33.3485604,24.3991392 33.3800046,24.6116119 33.3999941,24.8275659 C33.0171615,24.775683 32.6393824,24.7340195 32.2665445,24.7025753 C32.6101842,24.5428839 32.9582037,24.3720748 33.3113889,24.188688 Z M32.3175289,19.6433226 C32.565264,19.4780162 32.8176034,19.314282 33.0780284,19.1527938 C32.8853206,19.3949138 32.6933989,19.6278252 32.5018142,19.8560199 C32.4418457,19.7838106 32.3796312,19.7136228 32.3175289,19.6433226 Z M32.8347853,22.5597683 C32.9039625,22.7261977 32.9678615,22.8952101 33.0256963,23.0670299 C31.8222835,23.7077046 30.6856894,24.203287 29.6175988,24.5522049 C29.5979462,24.4701132 29.5766091,24.388583 29.5521276,24.3085127 C29.9771852,23.9889053 30.403815,23.6359446 30.8321294,23.2498552 C31.4648308,22.9941469 32.1326822,22.7643799 32.8347853,22.5597683 Z M27.7309493,18.032371 C28.147809,18.1492759 28.5507434,18.2993095 28.9364959,18.4805626 C28.5783694,19.7988589 28.1741996,20.9756565 27.7270188,22.0029821 C27.6754728,21.9727732 27.6233654,21.9435751 27.5703595,21.9156122 C27.7631796,20.7529645 27.8174207,19.4617326 27.7309493,18.032371 Z M25.7843313,16.624122 C25.8949474,16.0302766 26.0279113,15.4238536 26.1856936,14.8036175 C26.3006893,15.4463137 26.3912036,16.0629561 26.4618406,16.6590475 C26.2384748,16.6382718 26.0121892,16.6279402 25.7843313,16.624122 Z M26.4924987,17.7928339 C25.9444719,19.0108459 25.5915113,20.2266118 25.4350766,21.4357519 C25.4280017,21.4144148 25.4208144,21.3929654 25.4137395,21.371516 C25.3608459,20.2285209 25.424408,19.0187069 25.6021798,17.7442078 C25.6113885,17.7442078 25.6203725,17.743534 25.6295812,17.743534 C25.9214503,17.743534 26.2089398,17.7615021 26.4924987,17.7928339 Z M21.0354774,19.2483616 C21.0730981,19.2209602 21.1092589,19.1915375 21.1473288,19.1646976 C21.1758531,19.251506 21.2063989,19.3358437 21.235597,19.4216413 C21.1692274,19.3639188 21.1031946,19.3061963 21.0354774,19.2483616 Z M22.3301906,22.0653089 C22.4496784,22.3043968 22.5735459,22.5375328 22.7005579,22.7661767 C22.5908402,22.8863383 22.4889836,23.0135749 22.3942019,23.1464264 C21.4840059,22.3735739 20.6095214,21.4585489 19.7722084,20.4005653 C19.8950652,20.261088 20.0220771,20.1255413 20.1544795,19.9949357 C20.9800009,20.6898516 21.7055749,21.3800509 22.3301906,22.0653089 Z M21.2047143,23.8205667 C20.2127635,23.698496 19.157812,23.6780573 18.0339079,23.7599244 C18.1099354,23.4368357 18.205054,23.1211588 18.3199375,22.8148029 C19.3829746,23.0986987 20.3434813,23.433579 21.2047143,23.8205667 Z M19.6875337,22.0567741 C19.3962261,21.9639015 19.0997526,21.8736118 18.7923859,21.7889372 C18.879082,21.631941 18.9727406,21.4794369 19.0697683,21.3291787 C19.273257,21.5794967 19.4793285,21.821729 19.6875337,22.0567741 Z M19.0844797,19.4877864 C18.9100769,19.2452171 18.7369095,18.997819 18.565988,18.7422229 C18.8108032,18.923476 19.0467467,19.1045045 19.2780859,19.2851961 C19.2125023,19.3516781 19.1480418,19.4191707 19.0844797,19.4877864 Z M17.8266011,29.8800805 C17.1018133,30.1350028 16.342886,30.3661174 15.5473488,30.5709536 C16.2238474,30.1006388 16.8833887,29.6742336 17.526534,29.2899411 C17.6196312,29.4907345 17.7193541,29.6875974 17.8266011,29.8800805 Z M17.824692,25.5484232 C17.824692,25.3429131 17.8352482,25.1398737 17.850858,24.9382942 C18.9600507,25.458695 20.0509384,25.8635386 21.1198151,26.1493435 C20.0893452,26.249291 18.9995805,26.2577135 17.8522056,26.1752849 C17.8355851,25.9682027 17.824692,25.7595482 17.824692,25.5484232 Z M15.2275168,22.1746896 C15.925914,22.2827228 16.5896104,22.4072641 17.2223118,22.5468537 C17.1408938,22.7740378 17.0686846,23.0056015 17.005684,23.2409835 C16.4198119,22.9187932 15.8270896,22.5639234 15.2275168,22.1746896 Z M16.7179699,26.0671395 C15.8248435,25.9604539 14.8990377,25.8019979 13.9404401,25.5915466 C14.91184,25.3463945 15.8359613,25.162783 16.7174084,25.0373433 C16.7077506,25.2066926 16.7016863,25.3767156 16.7016863,25.5484232 C16.7016863,25.7226014 16.7080875,25.8953196 16.7179699,26.0671395 Z M21.311063,31.7487619 C21.2850093,31.829506 21.2599662,31.9122715 21.2343617,31.993914 C21.1968533,31.9683095 21.1604679,31.9412451 21.1234087,31.9149667 C21.1857356,31.8596026 21.2496346,31.8045753 21.311063,31.7487619 Z M20.24286,31.1881575 C20.0707033,31.0236372 19.9060706,30.8514804 19.7494113,30.6719118 C19.8997818,30.4909956 20.0501523,30.3138976 20.2002981,30.1427515 C20.9874128,29.7828282 21.7284842,29.3878672 22.4229509,28.9591036 C22.4131807,28.9788685 22.4036352,28.9989703 22.3939773,29.0189598 C21.7637466,29.7631756 21.0462583,30.486279 20.24286,31.1881575 Z M23.5867216,31.261939 C23.366051,31.7814414 23.1156207,32.3061096 22.8385753,32.8352699 C22.6344128,32.7568841 22.4336194,32.6715356 22.2381041,32.5769786 C22.5651234,31.4928289 22.938972,30.5062685 23.3608852,29.6163988 C23.4627418,29.493542 23.5638123,29.3705729 23.6614015,29.2464807 C23.6034544,29.8844602 23.5781868,30.5556807 23.5867216,31.261939 Z M25.1675766,34.4644141 C25.1324266,34.6655445 25.0953674,34.8679101 25.0548269,35.0721848 C25.023495,34.8617335 24.9951953,34.6546513 24.9683554,34.4491413 C25.0347251,34.4540825 25.1006455,34.4609328 25.1675766,34.4644141 Z M25.3378243,33.3457882 C25.1707211,33.3396117 25.0044039,33.3300661 24.8401082,33.3134457 C24.7793536,32.6685035 24.7417329,32.0487167 24.7283691,31.4556574 C24.9932862,30.8056618 25.2128338,30.1618426 25.3944238,29.5234139 C25.4233973,29.5255476 25.4521463,29.5284675 25.4813444,29.5299274 C25.5584949,30.7276129 25.5115533,31.9995291 25.3378243,33.3457882 Z M33.1282267,27.709086 C33.1265422,27.7152626 33.12497,27.7212145 33.1231732,27.7272787 C33.1123923,27.7215514 33.1017238,27.7160487 33.0910552,27.7105459 C33.1034083,27.710209 33.1158736,27.7095352 33.1282267,27.709086 Z M30.2670329,26.4941062 C30.060063,26.4238061 29.8538792,26.3594579 29.6480322,26.2980294 C29.6823962,26.128231 29.7050809,25.9542774 29.717434,25.777404 C30.8843491,25.7176601 32.1189815,25.7805484 33.4218927,25.9695503 C33.4112241,26.1686592 33.3940421,26.3661959 33.3685499,26.5611497 C32.251047,26.6098881 31.2164219,26.5878772 30.2670329,26.4941062 Z M37.0611048,20.5520588 C36.1215982,20.6717712 35.2247659,20.8230401 34.3727416,21.0059777 C34.0545941,21.0743687 33.7438584,21.1489363 33.4366041,21.2263114 C33.3575445,21.0841389 33.2752281,20.9438755 33.1887567,20.8065319 C33.9553204,19.9085766 34.7279482,18.9057325 35.507988,17.7945185 C38.0764142,16.4953132 41.117738,15.3416495 44.6196065,14.335998 C41.9082217,16.8383915 39.3860633,18.9126952 37.0611048,20.5520588 Z M47.3839972,20.3824849 C44.4379042,20.1748412 41.7219151,20.1595683 39.2574792,20.3358802 C41.194327,18.8675503 43.2524594,17.12779 45.4155929,15.1297384 C46.2810933,16.7712357 46.9484956,18.5324455 47.3839972,20.3824849 Z M34.7299697,29.9803649 C34.3226555,29.8824388 33.9278067,29.7797961 33.544188,29.6729983 C33.6010121,29.5646282 33.6559271,29.4552475 33.7082591,29.3441822 C34.0471822,29.5448633 34.3876775,29.7563253 34.7299697,29.9803649 Z M33.9310634,22.268236 C34.1975527,22.2035509 34.467074,22.1413364 34.742435,22.0835016 C34.4999781,22.2320752 34.2608902,22.3734616 34.0232622,22.511479 C33.9936149,22.4298365 33.9630691,22.3486432 33.9310634,22.268236 Z M35.5916519,26.3837148 C35.2219584,26.4257152 34.8607998,26.4604161 34.5061546,26.4892773 C34.5178339,26.3794474 34.5271548,26.2689436 34.534679,26.1576537 C34.8825861,26.2248095 35.2347607,26.2999386 35.5916519,26.3837148 Z M47.8889005,23.5170183 C44.3457054,24.6508048 41.1594015,25.4718342 38.3381868,25.9775236 C37.4295629,25.6859914 36.5465436,25.4418499 35.6911502,25.2458855 C35.3024779,25.1568311 34.919533,25.0799052 34.5398448,25.0101666 C34.5115451,24.5370443 34.4458492,24.0740291 34.3464632,23.6234792 C34.4021643,23.5918105 34.456967,23.5619385 34.5128927,23.5297082 C35.4585757,22.9838152 36.4451362,22.3525737 37.4695419,21.6381176 C40.4320308,21.2794295 43.820588,21.2421458 47.6209514,21.5262662 C47.738867,22.1806416 47.8296058,22.8443379 47.8889005,23.5170183 Z M25.6857314,1.96530479 C12.7129949,1.96530479 2.15876333,12.5194241 2.15876333,25.4922729 C2.15876333,38.4650094 12.7129949,49.019241 25.6857314,49.019241 C38.6585803,49.019241 49.2126996,38.4650094 49.2126996,25.4922729 C49.2126996,12.5194241 38.6585803,1.96530479 25.6857314,1.96530479 Z"/>
  </g>
</svg>
