<svg xmlns="http://www.w3.org/2000/svg" width="188" height="114" viewBox="0 0 188 114">
  <path fill="#37474F" fill-rule="evenodd" d="M399.899155,71.4882627 C399.034768,71.2731263 398.314445,71.0579899 397.666154,70.7711414 C397.017864,70.4842929 396.513638,70.1257323 396.081444,69.6954595 C396.513638,65.8947168 396.081444,62.595959 396.441606,58.8669283 C397.882251,44.3810787 407.03035,48.9706548 415.242028,46.6041546 C420.35632,45.1699121 425.470611,42.2297149 426.767192,36.2058962 C421.148675,29.6800926 414.881867,23.9431225 408.038801,19.0666978 C385.78083,3.2900299 356.679793,-3.02063728 330.243949,1.35380247 C339.896274,18.1344402 360.569535,25.8076378 379.081829,18.7798493 C363.738955,27.4570167 345.010565,24.8753801 332.548982,13.5448641 C330.748175,14.2619853 329.019401,15.0508187 327.290626,15.9113643 C341.336919,29.321532 363.306761,30.8274867 379.081829,18.7798493 C379.009796,18.9232736 377.641183,21.0029253 375.984441,29.6800926 C372.310795,48.1818214 361.722051,46.7475789 348.612178,42.0862906 C321.38398,32.2617292 306.401268,41.3691694 292.787169,22.7240163 C288.825394,24.9470923 286.376297,29.1063956 286.376297,33.6242596 C286.376297,38.2855479 288.969458,42.2297149 292.715136,44.3810787 C297.685363,40.9388966 303.30388,38.7875328 309.138494,38.0704115 C297.829428,41.5125936 293.075298,46.7475789 290.698233,54.2773522 C287.816942,63.3847924 289.041491,72.7073689 275.571456,75.1455812 C268.440261,75.5041418 268.584326,80.3088543 265.991164,87.480067 C262.749712,96.8026435 258.427776,100.531674 250,109.352266 C253.457549,113.511569 257.059163,114.013554 260.732808,112.507599 C268.296197,109.352266 274.130811,99.5994165 279.605263,93.2887493 C285.728006,86.2609609 300.422589,89.2728702 311.515559,82.388506 C319.15098,77.7272178 322.896658,71.4165506 317.854399,60.7314437 C321.095851,64.31705 323.040722,68.834914 323.328851,73.6396265 C336.150595,71.9902476 353.294276,87.5517792 368.925279,90.1334157 C367.340569,88.1254762 366.043988,85.9741124 365.107568,83.7510364 C363.306761,79.4483088 362.730503,75.5041418 363.090665,72.0619597 C364.53131,80.5957028 373.175182,91.5676583 387.077411,92.5716281 C390.606992,92.8584766 394.496735,92.4282038 398.530542,91.2090976 C403.356704,89.7748551 407.822705,87.9103398 413.153093,88.9143096 C417.114867,89.6314308 420.788513,91.6393704 423.093546,95.0098404 C426.551095,100.029689 434.114483,101.105371 437.5,94.9381282 C429.864579,75.0738691 408.831156,73.7830508 399.899155,71.4882627 Z" transform="translate(-250)"/>
</svg>
