<svg width="66" height="40" xmlns="http://www.w3.org/2000/svg"><path d="M51.863 24.977a1.572 1.572 0 0 1-.549-.379c.17-1.334.013-2.498.145-3.806.516-5.123 3.72-3.506 6.61-4.317 1.796-.501 3.594-1.535 4.04-3.668a36.681 36.681 0 0 0-6.59-6.052C47.694 1.163 37.463-1.058 28.174.47c3.38 5.93 10.65 8.632 17.173 6.14-5.394 3.055-11.983 2.148-16.353-1.844-.628.26-1.248.536-1.856.83 4.925 4.729 12.663 5.255 18.21 1.014-.027.042-.495.782-1.1 3.859-1.285 6.538-5.018 6.025-9.614 4.374-9.566-3.441-14.845-.23-19.624-6.813a4.382 4.382 0 0 0-2.243 3.85 4.394 4.394 0 0 0 2.216 3.788 12.875 12.875 0 0 1 5.78-2.232c-3.97 1.216-5.65 3.074-6.49 5.734-1.013 3.203-.575 6.496-5.308 7.364-2.518.133-2.468 1.816-3.358 4.356-1.151 3.29-2.65 4.596-5.608 7.718 1.205 1.46 2.48 1.656 3.771 1.114 2.655-1.112 4.698-4.544 6.635-6.785 2.146-2.483 7.307-1.42 11.222-3.843 2.675-1.655 4.004-3.862 2.233-7.655a7.349 7.349 0 0 1 1.916 4.566c4.497-.583 10.537 4.904 16.029 5.83a9.398 9.398 0 0 1-1.347-2.26c-.64-1.532-.83-2.916-.697-4.116.51 3.02 3.55 6.892 8.432 7.251 1.244.092 2.597-.046 4.037-.481 1.702-.512 3.255-1.155 5.143-.814 1.398.254 2.672.953 3.483 2.151 1.207 1.785 3.884 2.162 5.07-.022-2.739-7.05-10.126-7.494-13.282-8.316a5.859 5.859 0 0 1-.782-.252z" fill="#333" fill-rule="evenodd"/></svg>
