<svg width="66" height="40" xmlns="http://www.w3.org/2000/svg"><path d="M51.92 24.977a1.574 1.574 0 0 1-.55-.379c.17-1.334.014-2.498.146-3.806.516-5.123 3.724-3.506 6.617-4.317 1.798-.501 3.598-1.535 4.043-3.668a36.706 36.706 0 0 0-6.597-6.052C47.747 1.163 37.505-1.058 28.206.47 31.59 6.4 38.869 9.103 45.398 6.61c-5.4 3.055-11.996 2.148-16.372-1.844-.628.26-1.248.536-1.858.83 4.93 4.729 12.677 5.255 18.23 1.014-.027.042-.495.782-1.1 3.859-1.287 6.538-5.024 6.025-9.626 4.374-9.576-3.441-14.86-.23-19.644-6.813A4.382 4.382 0 0 0 15 15.67a12.897 12.897 0 0 1 5.786-2.232c-3.975 1.216-5.657 3.074-6.498 5.734-1.013 3.203-.575 6.496-5.314 7.364-2.52.133-2.47 1.816-3.361 4.356C4.462 34.18 2.96 35.487 0 38.609c1.206 1.46 2.482 1.656 3.776 1.114 2.657-1.112 4.702-4.544 6.642-6.785 2.148-2.483 7.314-1.42 11.234-3.843 2.678-1.655 4.009-3.862 2.236-7.655a7.345 7.345 0 0 1 1.918 4.566c4.5-.583 10.548 4.904 16.045 5.83a9.395 9.395 0 0 1-1.347-2.26c-.64-1.532-.832-2.916-.699-4.116.512 3.02 3.555 6.892 8.442 7.251 1.245.092 2.6-.046 4.042-.481 1.703-.512 3.258-1.155 5.148-.814 1.4.254 2.675.953 3.487 2.151 1.208 1.785 3.888 2.162 5.076-.022-2.743-7.05-10.137-7.494-13.297-8.316a5.87 5.87 0 0 1-.783-.252z" fill="#FFF" fill-rule="evenodd"/></svg>
