<?xml version="1.0" encoding="UTF-8"?>
<svg width="300px" height="183px" viewBox="0 0 300 183" version="1.1" xmlns="http://www.w3.org/2000/svg" xmlns:xlink="http://www.w3.org/1999/xlink">
    <!-- Generator: Sketch 52.5 (67469) - http://www.bohemiancoding.com/sketch -->
    <title>Shape Copy 3</title>
    <desc>Created with Sketch.</desc>
    <g id="Logos" stroke="none" stroke-width="1" fill="none" fill-rule="evenodd">
        <g id="Flat-Invert-Round-Offset" transform="translate(-50.000000, -99.000000)" fill="#FFFFFF">
            <path d="M289.838648,213.891851 C288.455628,213.546096 287.303112,213.200341 286.265847,212.739334 C285.228582,212.278328 284.421821,211.70207 283.730311,211.01056 C284.421821,204.902223 283.730311,199.600648 284.306569,193.607563 C286.611602,170.326734 301.248559,177.702838 314.387245,173.899534 C322.570111,171.594502 330.752977,166.869185 332.827507,157.188047 C323.837879,146.700149 313.810987,137.480018 302.862082,129.642907 C267.249328,104.287548 220.687668,94.1454044 178.390319,101.175754 C185.021165,112.754993 194.902679,121.635964 206.365504,127.107139 C206.365504,127.107139 194.902679,127.107139 185.078371,119.768532 C182.19708,120.921048 176.431041,123.188816 173.665002,124.571835 C196.13907,146.123891 231.290818,148.544175 256.530926,129.181901 C256.415674,129.412404 254.225893,132.754701 251.575106,146.700149 C245.697272,176.43507 228.755282,174.130037 207.779485,166.638681 C164.214368,150.849208 140.242028,165.486165 118.45947,135.520741 C112.12063,139.093541 108.202075,145.778136 108.202075,153.038989 C108.202075,160.530345 112.351133,166.869185 118.344218,170.326734 C121.616211,165.986572 123.082764,164.751709 128.788818,164.751709 C119.959229,169.757812 118.920476,174.130037 115.117172,186.231459 C110.507107,200.868416 112.466385,215.851129 90.9143296,219.769684 C79.504418,220.345942 79.7349212,228.067802 75.5858625,239.592965 C70.399539,254.575677 63.484441,260.568762 50,274.744713 C55.5320784,281.429308 61.29466,282.236069 67.1724933,279.815785 C79.2739147,274.744713 88.609297,259.070491 97.3684211,248.928347 C107.16481,237.633687 130.676143,242.474256 148.424894,231.410099 C160.641567,223.918743 166.634652,213.776599 158.567038,196.604106 C163.753362,202.366688 166.865156,209.62754 167.326162,217.3494 C187.840953,214.698612 215.270841,239.708217 240.280446,243.857275 C237.74491,240.63023 235.67038,237.172681 234.172109,233.59988 C231.290818,226.684782 230.368805,220.345942 230.945063,214.813864 C233.250096,228.528808 247.080292,246.162308 269.323857,247.775831 C274.971187,248.236837 281.194775,247.545328 287.648867,245.58605 C295.370726,243.281017 302.516327,240.284475 311.044948,241.897998 C317.383788,243.050514 323.261621,246.27756 326.949673,251.694386 C332.481752,259.762001 344.583173,261.490775 350,251.579135 C337.783327,219.654432 304.12985,217.579903 289.838648,213.891851 Z" id="Shape-Copy-3"></path>
        </g>
    </g>
</svg>