<?xml version="1.0" encoding="utf-8"?>
<!-- Generator: Adobe Illustrator 23.0.2, SVG Export Plug-In . SVG Version: 6.00 Build 0)  -->
<svg version="1.1" id="Layer_1" xmlns="http://www.w3.org/2000/svg" xmlns:xlink="http://www.w3.org/1999/xlink" x="0px" y="0px"
	 viewBox="0 0 720 720" style="enable-background:new 0 0 720 720;" xml:space="preserve">
<style type="text/css">
	.st0{fill:#FFFFFF;}
	.st1{fill:#C70008;}
	.st2{fill:#F81A27;}
	.st3{fill:#E50922;}
	.st4{fill:#D7001A;}
</style>
<rect class="st0" width="720" height="720"/>
<g>
	<polygon class="st1" points="224.8,145.8 134.6,301.9 314.9,301.9 224.8,458.1 314.9,614.2 405.1,458.1 495.2,301.9 585.4,145.8 
		405.1,145.8 	"/>
	<polygon class="st1" points="224.8,145.8 134.6,301.9 314.9,301.9 	"/>
	<polygon class="st2" points="405.1,145.8 314.9,301.9 495.2,301.9 	"/>
	<polygon class="st3" points="314.9,301.9 405.1,145.8 224.8,145.8 	"/>
	<polygon class="st4" points="495.2,301.9 585.4,145.8 405.1,145.8 	"/>
	<polygon class="st4" points="314.9,301.9 224.8,458.1 405.1,458.1 	"/>
	<polygon class="st1" points="405.1,458.1 495.2,301.9 314.9,301.9 	"/>
	<polygon class="st2" points="314.9,614.2 405.1,458.1 224.8,458.1 	"/>
</g>
</svg>
