<svg xmlns="http://www.w3.org/2000/svg" width="314" height="60" viewBox="0 0 314 60">
  <g fill="#FFF">
    <path d="M32.8564 14.3164C32.8564 12.0864 30.7034 10.0004 28.5614 10.0004L9.9994 10.0004 9.9994 24.2854 28.4744 24.2854C30.7034 24.2854 32.8564 23.0584 32.8564 20.8304L32.8564 14.3164zM32.0764 60.0004L24.4484 35.7144 9.9994 35.7144 9.9994 60.0004.0004 60.0004.0004.0004 28.4744.0004C36.4454.0004 42.8574 6.4294 42.8574 14.3164L42.8574 20.8304C42.8574 26.4864 39.4374 31.2854 34.7254 33.5154L42.8754 60.0004 32.0764 60.0004zM76.3887 18.5156L68.3297 42.8576 84.2727 42.8576 76.3887 18.5156zM89.9297 59.9996L87.3137 52.8576 65.3147 52.8576 62.8447 59.9996 51.8757 59.9996 71.5877-.0004 81.0147-.0004 100.8137 59.9996 89.9297 59.9996z"/>
    <polygon points="143.03 60 119.815 20.686 119.815 60 109.814 60 109.814 0 119.232 0 142.673 39.4 142.673 0 152.672 0 152.672 60"/>
    <path d="M193.4131,60 L179.0141,60 C171.0421,60 165.1711,53.57 165.1711,45.687 L165.1711,14.316 C165.1711,6.43 171.0421,0 178.9291,0 L193.3251,0 C201.3001,0 208.0261,6.43 208.0261,14.316 L208.0261,17.143 L198.0301,17.143 L198.0301,14.316 C198.0301,12.086 195.5581,10 193.4131,10 L179.0141,10 C176.7851,10 175.1721,12.086 175.1721,14.316 L175.1721,45.687 C175.1721,47.914 176.7851,50 178.9291,50 L193.3251,50 C195.5581,50 198.0301,47.914 198.0301,45.687 L198.0301,35.715 L186.5991,35.715 L186.5991,24.285 L208.0261,24.285 L208.0261,45.687 C208.0261,53.57 201.3001,60 193.4131,60"/>
    <polygon points="220.525 60 220.525 0 257.668 0 257.668 10 230.524 10 230.524 24.285 257.668 24.285 257.668 35.715 230.524 35.715 230.524 50 257.668 50 257.668 60"/>
    <path d="M303.0264,14.3164 C303.0264,12.0864 301.0924,10.0004 298.9484,10.0004 L280.1694,10.0004 L280.1694,24.2854 L298.8664,24.2854 C301.0924,24.2854 303.0264,23.0584 303.0264,20.8304 L303.0264,14.3164 Z M302.4644,60.0004 L294.8354,35.7144 L280.1694,35.7144 L280.1694,60.0004 L270.1674,60.0004 L270.1674,0.0004 L298.8664,0.0004 C306.8354,0.0004 313.0254,6.4294 313.0254,14.3164 L313.0254,20.8304 C313.0254,26.4864 309.7174,31.2854 305.0014,33.5154 L313.2624,60.0004 L302.4644,60.0004 Z"/>
  </g>
</svg>
