<svg xmlns="http://www.w3.org/2000/svg" width="188" height="114" viewBox="0 0 188 114">
  <path fill="#37474F" fill-rule="evenodd" d="M803.49875,4039.70757 C802.86,4039.44002 802.355,4039.07539 801.94,4038.63362 C802.42125,4034.85673 801.97625,4031.56144 802.35125,4027.85673 C802.40375,4027.33779 802.46875,4026.85122 802.54,4026.37957 C802.5625,4026.23148 802.58875,4026.09211 802.6125,4025.95024 C802.66625,4025.63042 802.725,4025.32055 802.7875,4025.02437 C802.81875,4024.87504 802.8525,4024.72819 802.88625,4024.58259 C802.9525,4024.29762 803.025,4024.02259 803.10125,4023.75753 C803.135,4023.63931 803.1675,4023.51611 803.2025,4023.40037 C803.31625,4023.03699 803.43375,4022.68979 803.56375,4022.36375 C803.7,4022.02277 803.83875,4021.72162 803.98375,4021.43291 C804.2325,4020.97371 804.34,4020.78579 804.45125,4020.60659 C804.74125,4020.17353 804.86125,4020.01424 804.9825,4019.85868 C805.32875,4019.43931 805.5125,4019.24019 805.7025,4019.05975 C805.9025,4018.87184 806.1025,4018.70757 806.30625,4018.55326 C806.65375,4018.30686 806.80125,4018.20979 806.95125,4018.11895 C807.33875,4017.89868 807.49625,4017.81904 807.655,4017.74313 C808.0975,4017.54153 808.33,4017.44944 808.5675,4017.36855 C808.82625,4017.27895 809.07,4017.20926 809.31625,4017.14331 C809.73625,4017.04126 809.91375,4017.00144 810.09375,4016.96411 C810.55125,4016.87824 810.7325,4016.84962 810.91625,4016.82099 C811.4325,4016.74757 811.6925,4016.71522 811.95625,4016.68908 C814.845,4016.38917 818.06125,4016.49744 821.15125,4015.63504 C826.25875,4014.21513 831.3725,4011.28819 832.6375,4005.24891 C827.05125,3998.72553 820.74875,3992.98615 813.89625,3988.11166 C813.46,3987.80179 813.01125,3987.50935 812.57125,3987.20695 C811.52875,3986.49762 810.815,3986.01975 810.0925,3985.55557 C809.7075,3985.30793 809.31875,3985.06775 808.92875,3984.82633 C808.5575,3984.59486 808.4,3984.49282 808.23875,3984.39326 C807.505,3983.94526 806.76375,3983.51219 806.01875,3983.08411 C805.62375,3982.85637 805.2325,3982.62615 804.83625,3982.40464 C803.53875,3981.68162 802.23,3980.98099 800.90125,3980.31522 C800.59375,3980.16091 800.28,3980.01904 799.97,3979.86846 C799.6525,3979.71291 799.3325,3979.56233 799.01375,3979.41051 C798.275,3979.05833 797.53375,3978.71237 796.78625,3978.37762 C796.315,3978.16731 795.84125,3977.95948 795.36625,3977.75539 C795.14125,3977.65708 794.9175,3977.56002 794.6925,3977.46544 C793.935,3977.14562 793.17125,3976.84322 792.405,3976.54206 C791.90125,3976.34295 791.40125,3976.13762 790.89375,3975.94597 C790.2075,3975.68962 789.9775,3975.61495 789.74875,3975.53157 C788.86375,3975.21051 787.97875,3974.88819 787.085,3974.59077 C786.6825,3974.46384 786.28125,3974.33317 785.87875,3974.20251 C785.25375,3974.00215 784.62125,3973.82419 783.9925,3973.63504 C783.00375,3973.33762 782.01625,3973.03646 781.01875,3972.76766 C780.36375,3972.58971 779.7025,3972.43788 779.045,3972.27237 C778.065,3972.02846 777.0875,3971.77708 776.10125,3971.56055 C775.4125,3971.40748 774.7175,3971.28179 774.02625,3971.14366 C773.0625,3970.95077 772.1025,3970.75042 771.135,3970.58242 C770.41,3970.45673 769.68125,3970.36091 768.9525,3970.25015 C768.01375,3970.10704 767.07625,3969.95522 766.135,3969.83575 C765.36875,3969.73993 764.6025,3969.67522 763.83625,3969.59557 C762.9275,3969.50099 762.02,3969.39522 761.11125,3969.32304 C760.3,3969.25957 759.48875,3969.22971 758.6775,3969.18366 C757.81125,3969.13637 756.94625,3969.07291 756.08125,3969.04428 C755.215,3969.01815 754.35,3969.02686 753.48375,3969.01939 C752.67375,3969.01317 751.8625,3968.99202 751.05375,3969.00322 C750.11625,3969.01815 749.18375,3969.07166 748.25,3969.11148 C747.51375,3969.14259 746.77625,3969.15379 746.0425,3969.19984 C744.97875,3969.26828 743.9225,3969.37779 742.86375,3969.47859 C742.26375,3969.53584 741.66125,3969.57068 741.06375,3969.63913 C739.43375,3969.82206 737.81125,3970.04606 736.19875,3970.30988 C738.32,3974.14153 741.08625,3977.48535 744.26625,3980.29531 C743.25,3980.64375 742.29375,3980.98971 741.34375,3981.34686 C738.55625,3982.39842 735.835,3983.55824 733.1825,3984.83628 C747.18875,3998.22277 769.19625,3999.71362 784.97125,3987.70473 C784.95125,3987.73833 784.8475,3987.90384 784.67625,3988.27468 C784.55625,3988.54473 784.54375,3988.57708 784.53125,3988.60695 C784.4125,3988.89566 784.395,3988.94046 784.37625,3988.98775 C784.2425,3989.33744 784.22875,3989.37228 784.215,3989.41335 C784.15875,3989.56642 784.1,3989.73193 784.03875,3989.90864 C783.9425,3990.19237 783.8925,3990.34544 783.84125,3990.50597 C783.72125,3990.88304 783.66125,3991.07717 783.60125,3991.28002 C783.49,3991.65086 783.41375,3991.91717 783.33625,3992.19842 C783.2175,3992.62899 783.155,3992.86171 783.0925,3993.10562 C782.9425,3993.68304 782.86625,3993.98917 782.7875,3994.31397 C782.67625,3994.77317 782.58875,3995.15397 782.49875,3995.54722 C782.355,3996.19433 782.285,3996.51539 782.21375,3996.84766 C782.18625,3996.97211 782.16,3997.09531 782.13375,3997.22348 C782.03875,3997.67397 781.94375,3998.13815 781.84625,3998.63095 C781.73625,3999.19468 781.6175,3999.73851 781.4925,4000.26366 C781.45125,4000.44535 781.40375,4000.61335 781.36,4000.78882 C781.275,4001.12731 781.19125,4001.46704 781.10125,4001.79059 C781.045,4001.99344 780.98375,4002.18508 780.925,4002.38419 C780.8425,4002.66046 780.76125,4002.94171 780.67375,4003.20802 C780.60625,4003.41708 780.53375,4003.61371 780.46375,4003.81531 C780.38,4004.05299 780.2975,4004.29317 780.21125,4004.51966 C780.13375,4004.72499 780.05125,4004.92037 779.97125,4005.11824 C779.88625,4005.32606 779.80125,4005.53637 779.7125,4005.73548 C779.62625,4005.93211 779.535,4006.12002 779.44625,4006.30917 C779.35875,4006.49211 779.27125,4006.67628 779.18125,4006.85051 C779.085,4007.04091 778.985,4007.22135 778.885,4007.40179 C778.7975,4007.56108 778.70875,4007.71913 778.6175,4007.87219 C778.51125,4008.05139 778.4025,4008.22437 778.2925,4008.39486 C778.2025,4008.53299 778.11375,4008.66864 778.02375,4008.80179 C777.90625,4008.96979 777.7875,4009.13406 777.6675,4009.29459 C777.57875,4009.41282 777.48875,4009.52979 777.39875,4009.64304 C777.27,4009.80108 777.14125,4009.95539 777.01,4010.10597 C776.60625,4010.54526 776.46625,4010.69086 776.3225,4010.83024 C775.91375,4011.20731 775.76,4011.34295 775.605,4011.46988 C775.195,4011.78971 775.0275,4011.91539 774.8575,4012.03113 C774.455,4012.29371 774.27,4012.41068 774.0825,4012.51771 C773.69625,4012.72553 773.49,4012.83255 773.27875,4012.92962 C772.93,4013.08268 772.6925,4013.18224 772.4525,4013.27059 C772.27125,4013.33779 772.06875,4013.40499 771.84875,4013.47095 C770.49875,4013.85051 769.33625,4014.00108 768.1175,4014.02597 C767.62625,4014.03593 767.125,4014.02348 766.61625,4013.99362 C765.52,4013.92268 764.4825,4013.78579 763.41375,4013.58544 C762.21875,4013.35895 761.1425,4013.10135 760.04125,4012.79771 C758.7225,4012.42811 757.62875,4012.08464 756.51625,4011.71255 C755.60125,4011.40268 755.0625,4011.21477 754.51625,4011.01939 C751.78,4010.04002 749.18625,4009.26099 746.6975,4008.61513 C739.6,4006.77833 733.4075,4006.08891 727.86875,4005.47788 C727.3375,4005.41939 726.815,4005.36091 726.29375,4005.30242 C726.02,4005.27255 725.75125,4005.24019 725.48125,4005.21033 C725.035,4005.15931 724.595,4005.10704 724.15625,4005.05353 C723.92125,4005.02615 723.685,4004.99753 723.45125,4004.96766 C722.8825,4004.89673 722.32,4004.82206 721.765,4004.74366 C720.8975,4004.62046 720.285,4004.52464 719.68,4004.42259 C718.71375,4004.24962 718.28625,4004.16873 717.8625,4004.08411 C717.65375,4004.04179 717.445,4003.99575 717.2375,4003.95095 C716.8375,4003.86508 716.44125,4003.77299 716.04625,4003.67593 C715.84875,4003.62739 715.65,4003.57762 715.455,4003.52659 C715.0025,4003.40837 714.555,4003.28019 714.11125,4003.14455 C713.17375,4002.85459 712.61875,4002.66171 712.07,4002.45264 C711.25625,4002.12411 710.84625,4001.95113 710.43875,4001.76571 C710.25375,4001.68233 710.07125,4001.59273 709.8875,4001.50313 C709.52625,4001.32891 709.16875,4001.14473 708.8125,4000.95308 C708.6275,4000.85228 708.44125,4000.75148 708.2575,4000.64571 C707.87625,4000.42793 707.49875,4000.19397 707.12375,3999.95131 C706.97875,3999.85922 706.8325,3999.77335 706.68875,3999.67628 C706.175,3999.33033 705.665,3998.96197 705.15875,3998.56873 C704.48125,3998.01993 704.06625,3997.66899 703.65375,3997.29815 C703.48625,3997.14757 703.32125,3996.98828 703.15375,3996.83148 C702.8175,3996.51415 702.4825,3996.18562 702.15,3995.84339 C701.9725,3995.66046 701.79625,3995.47628 701.62,3995.28588 C701.28125,3994.92002 700.945,3994.53673 700.6075,3994.14099 C700.4525,3993.95931 700.29625,3993.78259 700.1425,3993.59344 C699.66125,3993.00606 699.1825,3992.39628 698.705,3991.74295 C697.7025,3992.27806 696.80625,3992.95255 696.02,3993.72535 C693.6625,3996.04375 692.29375,3999.23824 692.31375,4002.62811 C692.3175,4003.35113 692.38375,4004.05922 692.5075,4004.74739 C692.56875,4005.09086 692.645,4005.43059 692.73375,4005.76286 C693.7175,4009.42775 696.33625,4012.40073 699.66375,4013.88908 C700.26875,4014.15788 700.8975,4014.37815 701.54375,4014.54615 C701.215,4014.89086 700.90625,4015.24179 700.61375,4015.59522 C700.52,4015.70971 700.43875,4015.82419 700.34875,4015.93868 C700.1575,4016.18011 699.96625,4016.42277 699.79,4016.66917 C699.68625,4016.81228 699.595,4016.95913 699.4975,4017.10473 C699.34875,4017.32251 699.19875,4017.54153 699.06125,4017.76304 C698.96125,4017.92357 698.8725,4018.08784 698.7775,4018.24962 C698.65625,4018.45868 698.53125,4018.66526 698.41875,4018.87433 C698.32625,4019.04606 698.24375,4019.22028 698.15625,4019.39202 C698.055,4019.59611 697.95,4019.79895 697.85375,4020.00428 C697.77,4020.18224 697.695,4020.36268 697.61625,4020.54188 C697.52875,4020.74224 697.44,4020.94259 697.35875,4021.14419 C697.28375,4021.32962 697.21375,4021.51628 697.14375,4021.70295 C697.06875,4021.89833 696.99375,4022.09495 696.92375,4022.29157 C696.85625,4022.48322 696.7925,4022.67486 696.72875,4022.86651 C696.665,4023.06064 696.60125,4023.25228 696.54,4023.44393 C696.47875,4023.64304 696.42125,4023.84091 696.3625,4024.03877 C696.30875,4024.22544 696.2525,4024.41211 696.20125,4024.59877 C696.14375,4024.80535 696.09,4025.01068 696.035,4025.21602 C695.98875,4025.39397 695.94125,4025.57068 695.8975,4025.74988 C695.84125,4025.96891 695.7875,4026.18793 695.735,4026.40695 C695.69625,4026.56624 695.6575,4026.72553 695.62125,4026.88357 C695.56,4027.14117 695.5,4027.39877 695.4425,4027.65513 C695.26,4028.45904 695.1525,4028.94562 695.04375,4029.42846 C694.9675,4029.77193 694.89625,4030.07682 694.82625,4030.38171 C694.68875,4030.96535 694.62875,4031.21299 694.5675,4031.45815 C694.535,4031.59006 694.5025,4031.72322 694.46875,4031.85513 C694.41,4032.08162 694.35,4032.30437 694.29,4032.52837 C694.06125,4033.36091 693.81,4034.16979 693.515,4034.95131 C693.46625,4035.08446 693.41625,4035.21637 693.36375,4035.34828 C693.29,4035.53371 693.21,4035.71788 693.12875,4035.90082 C693.08,4036.01406 693.0325,4036.12855 692.98125,4036.23931 C692.855,4036.51059 692.72125,4036.77939 692.58,4037.04322 C692.35125,4037.45264 692.21625,4037.68411 692.0725,4037.90811 C691.76375,4038.36855 691.64625,4038.53779 691.5225,4038.70331 C691.445,4038.80659 691.3625,4038.90864 691.28125,4039.01068 C691.1575,4039.16499 691.03,4039.31557 690.89875,4039.46491 C690.485,4039.91166 690.335,4040.05851 690.18125,4040.20411 C689.715,4040.63095 689.515,4040.79273 689.31,4040.95202 C688.81625,4041.33033 688.51875,4041.53193 688.20625,4041.72606 C687.70625,4042.01602 687.4625,4042.15415 687.2075,4042.28482 C686.5825,4042.58473 686.345,4042.69299 686.0975,4042.79628 C685.38875,4043.07628 685.1275,4043.16962 684.86,4043.25922 C684.0775,4043.51059 683.76625,4043.59646 683.45125,4043.67859 C682.51625,4043.91504 682.02125,4044.02206 681.49875,4044.11788 C681.09375,4044.13904 680.72125,4044.17762 680.3625,4044.22739 C679.79625,4044.31948 679.5525,4044.36802 679.31875,4044.42402 C678.7425,4044.57584 678.4625,4044.66544 678.2025,4044.76997 C677.90375,4044.89193 677.65625,4045.01762 677.42125,4045.15326 C677.05,4045.38473 676.89125,4045.49548 676.74,4045.61246 C676.36875,4045.91735 676.195,4046.08037 676.035,4046.25459 C675.82,4046.48606 675.66,4046.69139 675.50875,4046.90544 C675.26625,4047.26633 675.16375,4047.43184 675.06625,4047.60233 C674.8225,4048.04535 674.71125,4048.26811 674.60625,4048.49957 C674.4475,4048.84802 674.33625,4049.12428 674.2275,4049.40802 C674.04875,4049.89211 673.9725,4050.10615 673.89875,4050.32517 C673.71,4050.88642 673.62375,4051.15397 673.53875,4051.42775 C673.03875,4053.03931 672.575,4054.66953 671.94875,4056.45033 C668.675,4065.76624 664.4125,4069.46473 656,4078.30277 C659.42625,4082.43931 663.05125,4082.99308 666.72625,4081.45868 C674.275,4078.30899 680.085,4068.59237 685.595,4062.24819 C691.7,4055.21708 706.37625,4058.22615 717.51125,4051.36677 C720.3425,4049.62206 721.9825,4048.11131 724.15625,4044.76997 C724.986694,4043.56037 726.534302,4043.09246 727.8775,4042.88588 C728.595,4042.72162 729.05625,4042.64571 729.52375,4042.59219 C730.20625,4042.52997 730.5975,4042.50882 730.99375,4042.50259 C731.835,4042.50011 732.32625,4042.51753 732.82375,4042.56108 C733.33625,4042.60588 733.835,4042.67308 734.33625,4042.75273 C735.15,4042.89335 735.61,4042.98544 736.07375,4043.09246 C736.775,4043.25673 737.315,4043.40108 737.85875,4043.56037 C738.585,4043.78188 739.07,4043.93868 739.55875,4044.10668 C740.93375,4044.58828 742.08625,4045.04251 743.25375,4045.54277 C745.00875,4046.29815 746.64625,4047.07468 748.3025,4047.89228 C749.465,4048.46722 750.6375,4049.06082 751.81875,4049.66686 C752.43625,4049.98419 753.0575,4050.30277 753.68,4050.62384 C756.32125,4051.98526 758.99125,4053.35415 761.665,4054.59984 C762.15,4054.82633 762.595,4055.03042 763.04125,4055.22953 C763.99,4055.65264 774.1425,4059.23943 778.6175,4060.24215 C783.0925,4061.24487 791.16625,4061.77282 795.77625,4061.67451 C798.5425,4061.61602 801.47375,4061.16553 804.5475,4060.24215 C808.17625,4059.15451 811.5675,4057.85904 815.3025,4057.68606 C816.5475,4057.62882 817.83,4057.69726 819.1725,4057.93868 C823.1475,4058.65797 826.7725,4060.63664 829.08,4064.02899 C832.5125,4069.08144 840.125,4070.15042 843.5,4063.96428 C835.70875,4044.00464 814.70125,4042.74651 805.725,4040.41815 C804.8625,4040.19415 804.11125,4039.96517 803.49875,4039.70757 Z" transform="translate(-656 -3969)"/>
</svg>
